%TF.GenerationSoftware,KiCad,Pcbnew,8.0.5*%
%TF.CreationDate,2025-02-24T18:35:13+02:00*%
%TF.ProjectId,UVCleanPCB,5556436c-6561-46e5-9043-422e6b696361,rev?*%
%TF.SameCoordinates,Original*%
%TF.FileFunction,Soldermask,Top*%
%TF.FilePolarity,Negative*%
%FSLAX46Y46*%
G04 Gerber Fmt 4.6, Leading zero omitted, Abs format (unit mm)*
G04 Created by KiCad (PCBNEW 8.0.5) date 2025-02-24 18:35:13*
%MOMM*%
%LPD*%
G01*
G04 APERTURE LIST*
G04 Aperture macros list*
%AMRoundRect*
0 Rectangle with rounded corners*
0 $1 Rounding radius*
0 $2 $3 $4 $5 $6 $7 $8 $9 X,Y pos of 4 corners*
0 Add a 4 corners polygon primitive as box body*
4,1,4,$2,$3,$4,$5,$6,$7,$8,$9,$2,$3,0*
0 Add four circle primitives for the rounded corners*
1,1,$1+$1,$2,$3*
1,1,$1+$1,$4,$5*
1,1,$1+$1,$6,$7*
1,1,$1+$1,$8,$9*
0 Add four rect primitives between the rounded corners*
20,1,$1+$1,$2,$3,$4,$5,0*
20,1,$1+$1,$4,$5,$6,$7,0*
20,1,$1+$1,$6,$7,$8,$9,0*
20,1,$1+$1,$8,$9,$2,$3,0*%
G04 Aperture macros list end*
%ADD10RoundRect,0.140000X0.170000X-0.140000X0.170000X0.140000X-0.170000X0.140000X-0.170000X-0.140000X0*%
%ADD11C,2.100000*%
%ADD12RoundRect,0.218750X-0.218750X-0.256250X0.218750X-0.256250X0.218750X0.256250X-0.218750X0.256250X0*%
%ADD13RoundRect,0.140000X0.140000X0.170000X-0.140000X0.170000X-0.140000X-0.170000X0.140000X-0.170000X0*%
%ADD14RoundRect,0.250000X-0.600000X-0.725000X0.600000X-0.725000X0.600000X0.725000X-0.600000X0.725000X0*%
%ADD15O,1.700000X1.950000*%
%ADD16RoundRect,0.102000X0.508000X-0.381000X0.508000X0.381000X-0.508000X0.381000X-0.508000X-0.381000X0*%
%ADD17RoundRect,0.250000X0.325000X0.650000X-0.325000X0.650000X-0.325000X-0.650000X0.325000X-0.650000X0*%
%ADD18RoundRect,0.140000X-0.170000X0.140000X-0.170000X-0.140000X0.170000X-0.140000X0.170000X0.140000X0*%
%ADD19RoundRect,0.135000X0.135000X0.185000X-0.135000X0.185000X-0.135000X-0.185000X0.135000X-0.185000X0*%
%ADD20RoundRect,0.200000X-0.200000X-0.275000X0.200000X-0.275000X0.200000X0.275000X-0.200000X0.275000X0*%
%ADD21RoundRect,0.135000X0.185000X-0.135000X0.185000X0.135000X-0.185000X0.135000X-0.185000X-0.135000X0*%
%ADD22R,1.000000X0.800000*%
%ADD23C,0.900000*%
%ADD24R,0.700000X1.500000*%
%ADD25RoundRect,0.135000X-0.135000X-0.185000X0.135000X-0.185000X0.135000X0.185000X-0.135000X0.185000X0*%
%ADD26RoundRect,0.250000X-0.650000X1.000000X-0.650000X-1.000000X0.650000X-1.000000X0.650000X1.000000X0*%
%ADD27RoundRect,0.218750X0.218750X0.256250X-0.218750X0.256250X-0.218750X-0.256250X0.218750X-0.256250X0*%
%ADD28RoundRect,0.250000X-0.325000X-0.650000X0.325000X-0.650000X0.325000X0.650000X-0.325000X0.650000X0*%
%ADD29RoundRect,0.125000X-0.125000X-0.625000X0.125000X-0.625000X0.125000X0.625000X-0.125000X0.625000X0*%
%ADD30RoundRect,0.125000X-0.625000X-0.125000X0.625000X-0.125000X0.625000X0.125000X-0.625000X0.125000X0*%
%ADD31RoundRect,0.102000X0.800000X0.700000X-0.800000X0.700000X-0.800000X-0.700000X0.800000X-0.700000X0*%
%ADD32RoundRect,0.250000X0.750000X-0.600000X0.750000X0.600000X-0.750000X0.600000X-0.750000X-0.600000X0*%
%ADD33O,2.000000X1.700000*%
%ADD34R,1.400000X0.570000*%
%ADD35R,1.900000X0.650000*%
%ADD36R,2.450000X2.000000*%
%ADD37RoundRect,0.087500X-0.225000X-0.087500X0.225000X-0.087500X0.225000X0.087500X-0.225000X0.087500X0*%
%ADD38RoundRect,0.087500X-0.087500X-0.225000X0.087500X-0.225000X0.087500X0.225000X-0.087500X0.225000X0*%
%ADD39RoundRect,0.200000X0.200000X0.275000X-0.200000X0.275000X-0.200000X-0.275000X0.200000X-0.275000X0*%
%ADD40RoundRect,0.250000X-0.600000X-0.750000X0.600000X-0.750000X0.600000X0.750000X-0.600000X0.750000X0*%
%ADD41O,1.700000X2.000000*%
%ADD42RoundRect,0.102000X-0.500000X-1.600000X0.500000X-1.600000X0.500000X1.600000X-0.500000X1.600000X0*%
%ADD43RoundRect,0.102000X-0.300000X-1.600000X0.300000X-1.600000X0.300000X1.600000X-0.300000X1.600000X0*%
G04 APERTURE END LIST*
D10*
%TO.C,C10*%
X184560000Y-66450000D03*
X184560000Y-65490000D03*
%TD*%
D11*
%TO.C,H1*%
X176430000Y-61940000D03*
%TD*%
D12*
%TO.C,D4*%
X179700000Y-80700000D03*
X181275000Y-80700000D03*
%TD*%
D13*
%TO.C,C9*%
X196810000Y-71000000D03*
X195850000Y-71000000D03*
%TD*%
D14*
%TO.C,J1*%
X195110000Y-62490000D03*
D15*
X197610000Y-62490000D03*
X200110000Y-62490000D03*
X202610000Y-62490000D03*
%TD*%
D16*
%TO.C,Q1*%
X193110000Y-75562500D03*
X195650000Y-76515000D03*
X195650000Y-74610000D03*
%TD*%
D10*
%TO.C,C2*%
X198200000Y-67400000D03*
X198200000Y-66440000D03*
%TD*%
D17*
%TO.C,C12*%
X183500000Y-73300000D03*
X180550000Y-73300000D03*
%TD*%
D13*
%TO.C,C3*%
X207780000Y-75300000D03*
X206820000Y-75300000D03*
%TD*%
D18*
%TO.C,C19*%
X184900000Y-80140000D03*
X184900000Y-81100000D03*
%TD*%
D19*
%TO.C,R15*%
X183575000Y-80700000D03*
X182555000Y-80700000D03*
%TD*%
D20*
%TO.C,R8*%
X194370000Y-66780000D03*
X196020000Y-66780000D03*
%TD*%
D21*
%TO.C,R11*%
X186300000Y-81100000D03*
X186300000Y-80080000D03*
%TD*%
D22*
%TO.C,SW5*%
X189680000Y-78895000D03*
X189680000Y-81105000D03*
D23*
X191830000Y-80005000D03*
X194830000Y-80005000D03*
D22*
X196980000Y-78895000D03*
X196980000Y-81105000D03*
D24*
X191080000Y-78245000D03*
X194080000Y-78245000D03*
X195580000Y-78245000D03*
%TD*%
D20*
%TO.C,R9*%
X192335000Y-73190000D03*
X193985000Y-73190000D03*
%TD*%
D13*
%TO.C,C7*%
X196800000Y-72000000D03*
X195840000Y-72000000D03*
%TD*%
D11*
%TO.C,H2*%
X176430000Y-79960000D03*
%TD*%
D25*
%TO.C,R16*%
X200780000Y-80700000D03*
X201800000Y-80700000D03*
%TD*%
D26*
%TO.C,D2*%
X181530000Y-70560000D03*
X181530000Y-66560000D03*
%TD*%
D22*
%TO.C,SW1*%
X191150000Y-63280000D03*
X191150000Y-61070000D03*
D23*
X189000000Y-62170000D03*
X186000000Y-62170000D03*
D22*
X183850000Y-63280000D03*
X183850000Y-61070000D03*
D24*
X189750000Y-63930000D03*
X186750000Y-63930000D03*
X185250000Y-63930000D03*
%TD*%
D27*
%TO.C,D5*%
X204500000Y-80700000D03*
X202925000Y-80700000D03*
%TD*%
D13*
%TO.C,C1*%
X196800000Y-68600000D03*
X195840000Y-68600000D03*
%TD*%
D10*
%TO.C,C20*%
X183820000Y-71690000D03*
X183820000Y-70730000D03*
%TD*%
%TO.C,C4*%
X197200000Y-67400000D03*
X197200000Y-66440000D03*
%TD*%
D28*
%TO.C,C14*%
X186025000Y-66100000D03*
X188975000Y-66100000D03*
%TD*%
D29*
%TO.C,U1*%
X199700000Y-67225000D03*
X200500000Y-67225000D03*
X201300000Y-67225000D03*
X202100000Y-67225000D03*
X202900000Y-67225000D03*
X203700000Y-67225000D03*
X204500000Y-67225000D03*
X205300000Y-67225000D03*
D30*
X206675000Y-68600000D03*
X206675000Y-69400000D03*
X206675000Y-70200000D03*
X206675000Y-71000000D03*
X206675000Y-71800000D03*
X206675000Y-72600000D03*
X206675000Y-73400000D03*
X206675000Y-74200000D03*
D29*
X205300000Y-75575000D03*
X204500000Y-75575000D03*
X203700000Y-75575000D03*
X202900000Y-75575000D03*
X202100000Y-75575000D03*
X201300000Y-75575000D03*
X200500000Y-75575000D03*
X199700000Y-75575000D03*
D30*
X198325000Y-74200000D03*
X198325000Y-73400000D03*
X198325000Y-72600000D03*
X198325000Y-71800000D03*
X198325000Y-71000000D03*
X198325000Y-70200000D03*
X198325000Y-69400000D03*
X198325000Y-68600000D03*
%TD*%
D11*
%TO.C,H4*%
X207860000Y-61940000D03*
%TD*%
%TO.C,H3*%
X207860000Y-79960000D03*
%TD*%
D10*
%TO.C,C21*%
X183820000Y-69780000D03*
X183820000Y-68820000D03*
%TD*%
D31*
%TO.C,S2*%
X187600000Y-75600000D03*
X180400000Y-75600000D03*
X187600000Y-78600000D03*
X180400000Y-78600000D03*
%TD*%
D19*
%TO.C,R1*%
X181550000Y-64130000D03*
X180530000Y-64130000D03*
%TD*%
D32*
%TO.C,J2*%
X176930000Y-69790000D03*
D33*
X176930000Y-67290000D03*
%TD*%
D34*
%TO.C,IC1*%
X186075000Y-69000000D03*
D35*
X186325000Y-70500000D03*
D34*
X186075000Y-72000000D03*
D36*
X188500000Y-70500000D03*
%TD*%
D37*
%TO.C,U2*%
X175837500Y-73750000D03*
X175837500Y-74250000D03*
X175837500Y-74750000D03*
X175837500Y-75250000D03*
D38*
X176500000Y-75412500D03*
X177000000Y-75412500D03*
X177500000Y-75412500D03*
D37*
X178162500Y-75250000D03*
X178162500Y-74750000D03*
X178162500Y-74250000D03*
X178162500Y-73750000D03*
D38*
X177500000Y-73587500D03*
X177000000Y-73587500D03*
X176500000Y-73587500D03*
%TD*%
D39*
%TO.C,R10*%
X193060000Y-66780000D03*
X191410000Y-66780000D03*
%TD*%
D40*
%TO.C,J3*%
X201100000Y-77800000D03*
D41*
X203600000Y-77800000D03*
%TD*%
D42*
%TO.C,U6*%
X192010000Y-69660000D03*
D43*
X190710000Y-69660000D03*
X193310000Y-69660000D03*
%TD*%
M02*
