%TF.GenerationSoftware,KiCad,Pcbnew,8.0.5*%
%TF.CreationDate,2025-02-24T18:35:13+02:00*%
%TF.ProjectId,UVCleanPCB,5556436c-6561-46e5-9043-422e6b696361,rev?*%
%TF.SameCoordinates,Original*%
%TF.FileFunction,Soldermask,Bot*%
%TF.FilePolarity,Negative*%
%FSLAX46Y46*%
G04 Gerber Fmt 4.6, Leading zero omitted, Abs format (unit mm)*
G04 Created by KiCad (PCBNEW 8.0.5) date 2025-02-24 18:35:13*
%MOMM*%
%LPD*%
G01*
G04 APERTURE LIST*
G04 Aperture macros list*
%AMRoundRect*
0 Rectangle with rounded corners*
0 $1 Rounding radius*
0 $2 $3 $4 $5 $6 $7 $8 $9 X,Y pos of 4 corners*
0 Add a 4 corners polygon primitive as box body*
4,1,4,$2,$3,$4,$5,$6,$7,$8,$9,$2,$3,0*
0 Add four circle primitives for the rounded corners*
1,1,$1+$1,$2,$3*
1,1,$1+$1,$4,$5*
1,1,$1+$1,$6,$7*
1,1,$1+$1,$8,$9*
0 Add four rect primitives between the rounded corners*
20,1,$1+$1,$2,$3,$4,$5,0*
20,1,$1+$1,$4,$5,$6,$7,0*
20,1,$1+$1,$6,$7,$8,$9,0*
20,1,$1+$1,$8,$9,$2,$3,0*%
G04 Aperture macros list end*
%ADD10C,2.100000*%
%ADD11RoundRect,0.250000X-0.600000X-0.725000X0.600000X-0.725000X0.600000X0.725000X-0.600000X0.725000X0*%
%ADD12O,1.700000X1.950000*%
%ADD13C,0.900000*%
%ADD14RoundRect,0.250000X0.750000X-0.600000X0.750000X0.600000X-0.750000X0.600000X-0.750000X-0.600000X0*%
%ADD15O,2.000000X1.700000*%
%ADD16RoundRect,0.200000X-0.275000X0.200000X-0.275000X-0.200000X0.275000X-0.200000X0.275000X0.200000X0*%
%ADD17RoundRect,0.225000X0.225000X0.250000X-0.225000X0.250000X-0.225000X-0.250000X0.225000X-0.250000X0*%
%ADD18RoundRect,0.102000X0.266700X-0.850900X0.266700X0.850900X-0.266700X0.850900X-0.266700X-0.850900X0*%
%ADD19R,2.100000X1.000000*%
%ADD20R,5.850000X4.900000*%
%ADD21RoundRect,0.102000X0.800000X0.700000X-0.800000X0.700000X-0.800000X-0.700000X0.800000X-0.700000X0*%
%ADD22RoundRect,0.147500X0.147500X0.172500X-0.147500X0.172500X-0.147500X-0.172500X0.147500X-0.172500X0*%
%ADD23RoundRect,0.218750X0.256250X-0.218750X0.256250X0.218750X-0.256250X0.218750X-0.256250X-0.218750X0*%
%ADD24RoundRect,0.135000X-0.135000X-0.185000X0.135000X-0.185000X0.135000X0.185000X-0.135000X0.185000X0*%
%ADD25RoundRect,0.140000X0.140000X0.170000X-0.140000X0.170000X-0.140000X-0.170000X0.140000X-0.170000X0*%
%ADD26RoundRect,0.135000X-0.185000X0.135000X-0.185000X-0.135000X0.185000X-0.135000X0.185000X0.135000X0*%
%ADD27RoundRect,0.125000X-0.537500X-0.125000X0.537500X-0.125000X0.537500X0.125000X-0.537500X0.125000X0*%
%ADD28RoundRect,0.218750X0.218750X0.256250X-0.218750X0.256250X-0.218750X-0.256250X0.218750X-0.256250X0*%
%ADD29RoundRect,0.102000X0.500000X1.600000X-0.500000X1.600000X-0.500000X-1.600000X0.500000X-1.600000X0*%
%ADD30RoundRect,0.102000X0.300000X1.600000X-0.300000X1.600000X-0.300000X-1.600000X0.300000X-1.600000X0*%
%ADD31RoundRect,0.135000X0.185000X-0.135000X0.185000X0.135000X-0.185000X0.135000X-0.185000X-0.135000X0*%
%ADD32RoundRect,0.140000X-0.140000X-0.170000X0.140000X-0.170000X0.140000X0.170000X-0.140000X0.170000X0*%
%ADD33RoundRect,0.250000X-0.600000X-0.750000X0.600000X-0.750000X0.600000X0.750000X-0.600000X0.750000X0*%
%ADD34O,1.700000X2.000000*%
%ADD35RoundRect,0.200000X-0.200000X-0.275000X0.200000X-0.275000X0.200000X0.275000X-0.200000X0.275000X0*%
%ADD36RoundRect,0.250000X-1.000000X-0.650000X1.000000X-0.650000X1.000000X0.650000X-1.000000X0.650000X0*%
%ADD37RoundRect,0.250000X0.250000X0.475000X-0.250000X0.475000X-0.250000X-0.475000X0.250000X-0.475000X0*%
%ADD38RoundRect,0.102000X-0.381000X-0.508000X0.381000X-0.508000X0.381000X0.508000X-0.381000X0.508000X0*%
%ADD39RoundRect,0.225000X-0.225000X-0.250000X0.225000X-0.250000X0.225000X0.250000X-0.225000X0.250000X0*%
%ADD40RoundRect,0.225000X0.250000X-0.225000X0.250000X0.225000X-0.250000X0.225000X-0.250000X-0.225000X0*%
G04 APERTURE END LIST*
D10*
%TO.C,H1*%
X176430000Y-61940000D03*
%TD*%
D11*
%TO.C,J1*%
X195110000Y-62490000D03*
D12*
X197610000Y-62490000D03*
X200110000Y-62490000D03*
X202610000Y-62490000D03*
%TD*%
D13*
%TO.C,SW5*%
X191830000Y-80005000D03*
X194830000Y-80005000D03*
%TD*%
D10*
%TO.C,H2*%
X176430000Y-79960000D03*
%TD*%
D13*
%TO.C,SW1*%
X189000000Y-62170000D03*
X186000000Y-62170000D03*
%TD*%
D10*
%TO.C,H4*%
X207860000Y-61940000D03*
%TD*%
%TO.C,H3*%
X207860000Y-79960000D03*
%TD*%
D14*
%TO.C,J2*%
X176930000Y-69790000D03*
D15*
X176930000Y-67290000D03*
%TD*%
D16*
%TO.C,R7*%
X189500000Y-75800000D03*
X189500000Y-74150000D03*
%TD*%
D17*
%TO.C,C16*%
X189400000Y-80600000D03*
X187850000Y-80600000D03*
%TD*%
D18*
%TO.C,U3*%
X188047500Y-73390800D03*
X186777500Y-73390800D03*
X185507500Y-73390800D03*
X184237500Y-73390800D03*
X182967500Y-73390800D03*
X181697500Y-73390800D03*
X180427500Y-73390800D03*
X180427500Y-68209200D03*
X181697500Y-68209200D03*
X182967500Y-68209200D03*
X184237500Y-68209200D03*
X185507500Y-68209200D03*
X186777500Y-68209200D03*
X188047500Y-68209200D03*
%TD*%
D19*
%TO.C,IC2*%
X197680000Y-73080000D03*
X197680000Y-68520000D03*
D20*
X204480000Y-70800000D03*
%TD*%
D21*
%TO.C,S1*%
X180400000Y-75600000D03*
X187600000Y-75600000D03*
X180400000Y-78600000D03*
X187600000Y-78600000D03*
%TD*%
D22*
%TO.C,D6*%
X204885000Y-65200000D03*
X203915000Y-65200000D03*
%TD*%
D23*
%TO.C,FB1*%
X207500000Y-78087500D03*
X207500000Y-76512500D03*
%TD*%
D24*
%TO.C,R2*%
X203880000Y-66200000D03*
X204900000Y-66200000D03*
%TD*%
D25*
%TO.C,C11*%
X208020000Y-64120000D03*
X207060000Y-64120000D03*
%TD*%
D26*
%TO.C,R5*%
X205900000Y-65180000D03*
X205900000Y-66200000D03*
%TD*%
D27*
%TO.C,U4*%
X200170000Y-66790000D03*
X200170000Y-66140000D03*
X200170000Y-65490000D03*
X200170000Y-64840000D03*
X202445000Y-64840000D03*
X202445000Y-65490000D03*
X202445000Y-66140000D03*
X202445000Y-66790000D03*
%TD*%
D28*
%TO.C,D8*%
X204500000Y-80700000D03*
X202925000Y-80700000D03*
%TD*%
D29*
%TO.C,U7*%
X191990000Y-69670000D03*
D30*
X193290000Y-69670000D03*
X190690000Y-69670000D03*
%TD*%
D16*
%TO.C,R14*%
X189220000Y-67575000D03*
X189220000Y-69225000D03*
%TD*%
D31*
%TO.C,R18*%
X179020000Y-66720000D03*
X179020000Y-65700000D03*
%TD*%
D24*
%TO.C,R19*%
X180500000Y-66700000D03*
X181520000Y-66700000D03*
%TD*%
D32*
%TO.C,C8*%
X207390000Y-74590000D03*
X208350000Y-74590000D03*
%TD*%
D33*
%TO.C,J3*%
X201100000Y-77800000D03*
D34*
X203600000Y-77800000D03*
%TD*%
D35*
%TO.C,R12*%
X177875000Y-64500000D03*
X179525000Y-64500000D03*
%TD*%
%TO.C,R13*%
X183800000Y-64500000D03*
X182150000Y-64500000D03*
%TD*%
D36*
%TO.C,D7*%
X192190000Y-75470000D03*
X196190000Y-75470000D03*
%TD*%
D24*
%TO.C,R20*%
X180480000Y-65700000D03*
X181500000Y-65700000D03*
%TD*%
D35*
%TO.C,R17*%
X177450000Y-73800000D03*
X179100000Y-73800000D03*
%TD*%
D37*
%TO.C,C18*%
X178600000Y-75550000D03*
X176700000Y-75550000D03*
%TD*%
D38*
%TO.C,Q2*%
X180947500Y-64140000D03*
X179995000Y-61600000D03*
X181900000Y-61600000D03*
%TD*%
D39*
%TO.C,C17*%
X197550000Y-80700000D03*
X199100000Y-80700000D03*
%TD*%
D24*
%TO.C,R6*%
X200780000Y-80700000D03*
X201800000Y-80700000D03*
%TD*%
D40*
%TO.C,C5*%
X207760000Y-67140000D03*
X207760000Y-65590000D03*
%TD*%
D32*
%TO.C,C6*%
X205330000Y-74610000D03*
X206290000Y-74610000D03*
%TD*%
M02*
