%TF.GenerationSoftware,KiCad,Pcbnew,8.0.5*%
%TF.CreationDate,2025-02-24T18:35:13+02:00*%
%TF.ProjectId,UVCleanPCB,5556436c-6561-46e5-9043-422e6b696361,rev?*%
%TF.SameCoordinates,Original*%
%TF.FileFunction,Copper,L2,Bot*%
%TF.FilePolarity,Positive*%
%FSLAX46Y46*%
G04 Gerber Fmt 4.6, Leading zero omitted, Abs format (unit mm)*
G04 Created by KiCad (PCBNEW 8.0.5) date 2025-02-24 18:35:13*
%MOMM*%
%LPD*%
G01*
G04 APERTURE LIST*
G04 Aperture macros list*
%AMRoundRect*
0 Rectangle with rounded corners*
0 $1 Rounding radius*
0 $2 $3 $4 $5 $6 $7 $8 $9 X,Y pos of 4 corners*
0 Add a 4 corners polygon primitive as box body*
4,1,4,$2,$3,$4,$5,$6,$7,$8,$9,$2,$3,0*
0 Add four circle primitives for the rounded corners*
1,1,$1+$1,$2,$3*
1,1,$1+$1,$4,$5*
1,1,$1+$1,$6,$7*
1,1,$1+$1,$8,$9*
0 Add four rect primitives between the rounded corners*
20,1,$1+$1,$2,$3,$4,$5,0*
20,1,$1+$1,$4,$5,$6,$7,0*
20,1,$1+$1,$6,$7,$8,$9,0*
20,1,$1+$1,$8,$9,$2,$3,0*%
G04 Aperture macros list end*
%TA.AperFunction,ComponentPad*%
%ADD10RoundRect,0.250000X-0.600000X-0.725000X0.600000X-0.725000X0.600000X0.725000X-0.600000X0.725000X0*%
%TD*%
%TA.AperFunction,ComponentPad*%
%ADD11O,1.700000X1.950000*%
%TD*%
%TA.AperFunction,ComponentPad*%
%ADD12RoundRect,0.250000X0.750000X-0.600000X0.750000X0.600000X-0.750000X0.600000X-0.750000X-0.600000X0*%
%TD*%
%TA.AperFunction,ComponentPad*%
%ADD13O,2.000000X1.700000*%
%TD*%
%TA.AperFunction,SMDPad,CuDef*%
%ADD14RoundRect,0.200000X-0.275000X0.200000X-0.275000X-0.200000X0.275000X-0.200000X0.275000X0.200000X0*%
%TD*%
%TA.AperFunction,SMDPad,CuDef*%
%ADD15RoundRect,0.225000X0.225000X0.250000X-0.225000X0.250000X-0.225000X-0.250000X0.225000X-0.250000X0*%
%TD*%
%TA.AperFunction,SMDPad,CuDef*%
%ADD16R,0.533400X1.701800*%
%TD*%
%TA.AperFunction,SMDPad,CuDef*%
%ADD17R,2.100000X1.000000*%
%TD*%
%TA.AperFunction,SMDPad,CuDef*%
%ADD18R,5.850000X4.900000*%
%TD*%
%TA.AperFunction,SMDPad,CuDef*%
%ADD19R,1.600000X1.400000*%
%TD*%
%TA.AperFunction,SMDPad,CuDef*%
%ADD20RoundRect,0.147500X0.147500X0.172500X-0.147500X0.172500X-0.147500X-0.172500X0.147500X-0.172500X0*%
%TD*%
%TA.AperFunction,SMDPad,CuDef*%
%ADD21RoundRect,0.218750X0.256250X-0.218750X0.256250X0.218750X-0.256250X0.218750X-0.256250X-0.218750X0*%
%TD*%
%TA.AperFunction,SMDPad,CuDef*%
%ADD22RoundRect,0.135000X-0.135000X-0.185000X0.135000X-0.185000X0.135000X0.185000X-0.135000X0.185000X0*%
%TD*%
%TA.AperFunction,SMDPad,CuDef*%
%ADD23RoundRect,0.140000X0.140000X0.170000X-0.140000X0.170000X-0.140000X-0.170000X0.140000X-0.170000X0*%
%TD*%
%TA.AperFunction,SMDPad,CuDef*%
%ADD24RoundRect,0.135000X-0.185000X0.135000X-0.185000X-0.135000X0.185000X-0.135000X0.185000X0.135000X0*%
%TD*%
%TA.AperFunction,SMDPad,CuDef*%
%ADD25RoundRect,0.125000X-0.537500X-0.125000X0.537500X-0.125000X0.537500X0.125000X-0.537500X0.125000X0*%
%TD*%
%TA.AperFunction,SMDPad,CuDef*%
%ADD26RoundRect,0.218750X0.218750X0.256250X-0.218750X0.256250X-0.218750X-0.256250X0.218750X-0.256250X0*%
%TD*%
%TA.AperFunction,SMDPad,CuDef*%
%ADD27R,1.000000X3.200000*%
%TD*%
%TA.AperFunction,SMDPad,CuDef*%
%ADD28R,0.600000X3.200000*%
%TD*%
%TA.AperFunction,SMDPad,CuDef*%
%ADD29RoundRect,0.135000X0.185000X-0.135000X0.185000X0.135000X-0.185000X0.135000X-0.185000X-0.135000X0*%
%TD*%
%TA.AperFunction,SMDPad,CuDef*%
%ADD30RoundRect,0.140000X-0.140000X-0.170000X0.140000X-0.170000X0.140000X0.170000X-0.140000X0.170000X0*%
%TD*%
%TA.AperFunction,ComponentPad*%
%ADD31RoundRect,0.250000X-0.600000X-0.750000X0.600000X-0.750000X0.600000X0.750000X-0.600000X0.750000X0*%
%TD*%
%TA.AperFunction,ComponentPad*%
%ADD32O,1.700000X2.000000*%
%TD*%
%TA.AperFunction,SMDPad,CuDef*%
%ADD33RoundRect,0.200000X-0.200000X-0.275000X0.200000X-0.275000X0.200000X0.275000X-0.200000X0.275000X0*%
%TD*%
%TA.AperFunction,SMDPad,CuDef*%
%ADD34RoundRect,0.250000X-1.000000X-0.650000X1.000000X-0.650000X1.000000X0.650000X-1.000000X0.650000X0*%
%TD*%
%TA.AperFunction,SMDPad,CuDef*%
%ADD35RoundRect,0.250000X0.250000X0.475000X-0.250000X0.475000X-0.250000X-0.475000X0.250000X-0.475000X0*%
%TD*%
%TA.AperFunction,SMDPad,CuDef*%
%ADD36R,0.762000X1.016000*%
%TD*%
%TA.AperFunction,SMDPad,CuDef*%
%ADD37RoundRect,0.225000X-0.225000X-0.250000X0.225000X-0.250000X0.225000X0.250000X-0.225000X0.250000X0*%
%TD*%
%TA.AperFunction,SMDPad,CuDef*%
%ADD38RoundRect,0.225000X0.250000X-0.225000X0.250000X0.225000X-0.250000X0.225000X-0.250000X-0.225000X0*%
%TD*%
%TA.AperFunction,ViaPad*%
%ADD39C,0.600000*%
%TD*%
%TA.AperFunction,Conductor*%
%ADD40C,0.200000*%
%TD*%
G04 APERTURE END LIST*
D10*
%TO.P,J1,1,Pin_1*%
%TO.N,+3V3*%
X195110000Y-62490000D03*
D11*
%TO.P,J1,2,Pin_2*%
%TO.N,/SYS_SWDIO*%
X197610000Y-62490000D03*
%TO.P,J1,3,Pin_3*%
%TO.N,/SYS_SWCLK*%
X200110000Y-62490000D03*
%TO.P,J1,4,Pin_4*%
%TO.N,GND*%
X202610000Y-62490000D03*
%TD*%
D12*
%TO.P,J2,1,Pin_1*%
%TO.N,Net-(D2-A)*%
X176930000Y-69790000D03*
D13*
%TO.P,J2,2,Pin_2*%
%TO.N,GND*%
X176930000Y-67290000D03*
%TD*%
D14*
%TO.P,R7,2*%
%TO.N,/OFF*%
X189500000Y-75800000D03*
%TO.P,R7,1*%
%TO.N,+6V*%
X189500000Y-74150000D03*
%TD*%
D15*
%TO.P,C16,1*%
%TO.N,B+*%
X189400000Y-80600000D03*
%TO.P,C16,2*%
%TO.N,GND*%
X187850000Y-80600000D03*
%TD*%
D16*
%TO.P,U3,1,~1RD*%
%TO.N,unconnected-(U3-~1RD-Pad1)*%
X188047500Y-73390800D03*
%TO.P,U3,2,1D*%
%TO.N,/ON*%
X186777500Y-73390800D03*
%TO.P,U3,3,1CP*%
%TO.N,Net-(SW5-B)*%
X185507500Y-73390800D03*
%TO.P,U3,4,~1SD*%
%TO.N,unconnected-(U3-~1SD-Pad4)*%
X184237500Y-73390800D03*
%TO.P,U3,5,1Q*%
%TO.N,B+ PWRBTN*%
X182967500Y-73390800D03*
%TO.P,U3,6,~1Q*%
%TO.N,unconnected-(U3-~1Q-Pad6)*%
X181697500Y-73390800D03*
%TO.P,U3,7,GND*%
%TO.N,GND*%
X180427500Y-73390800D03*
%TO.P,U3,8,~2Q*%
%TO.N,unconnected-(U3-~2Q-Pad8)*%
X180427500Y-68209200D03*
%TO.P,U3,9,2Q*%
%TO.N,unconnected-(U3-2Q-Pad9)*%
X181697500Y-68209200D03*
%TO.P,U3,10,~2SD*%
%TO.N,unconnected-(U3-~2SD-Pad10)*%
X182967500Y-68209200D03*
%TO.P,U3,11,2CP*%
%TO.N,unconnected-(U3-2CP-Pad11)*%
X184237500Y-68209200D03*
%TO.P,U3,12,2D*%
%TO.N,unconnected-(U3-2D-Pad12)*%
X185507500Y-68209200D03*
%TO.P,U3,13,~2RD*%
%TO.N,unconnected-(U3-~2RD-Pad13)*%
X186777500Y-68209200D03*
%TO.P,U3,14,VCC*%
%TO.N,+6V*%
X188047500Y-68209200D03*
%TD*%
D17*
%TO.P,IC2,1,INPUT*%
%TO.N,B+*%
X197680000Y-73080000D03*
%TO.P,IC2,3,OUTPUT*%
%TO.N,+6V*%
X197680000Y-68520000D03*
D18*
%TO.P,IC2,4,GND_(THERMALPAD)*%
%TO.N,GND*%
X204480000Y-70800000D03*
%TD*%
D19*
%TO.P,S1,4*%
%TO.N,/OFF*%
X180400000Y-75600000D03*
%TO.P,S1,3*%
X187600000Y-75600000D03*
%TO.P,S1,2*%
%TO.N,/ON*%
X180400000Y-78600000D03*
%TO.P,S1,1*%
X187600000Y-78600000D03*
%TD*%
D20*
%TO.P,D6,1,K*%
%TO.N,Net-(D6-K)*%
X204885000Y-65200000D03*
%TO.P,D6,2,A*%
%TO.N,Net-(D6-A)*%
X203915000Y-65200000D03*
%TD*%
D21*
%TO.P,FB1,1*%
%TO.N,+3V3A*%
X207500000Y-78087500D03*
%TO.P,FB1,2*%
X207500000Y-76512500D03*
%TD*%
D22*
%TO.P,R2,1*%
%TO.N,Net-(U4-PROG)*%
X203880000Y-66200000D03*
%TO.P,R2,2*%
%TO.N,GND*%
X204900000Y-66200000D03*
%TD*%
D23*
%TO.P,C11,1*%
%TO.N,Net-(D7-K)*%
X208020000Y-64120000D03*
%TO.P,C11,2*%
%TO.N,GND*%
X207060000Y-64120000D03*
%TD*%
D24*
%TO.P,R5,1*%
%TO.N,Net-(D6-K)*%
X205900000Y-65180000D03*
%TO.P,R5,2*%
%TO.N,GND*%
X205900000Y-66200000D03*
%TD*%
D25*
%TO.P,U4,1,V_{DD}*%
%TO.N,Net-(D7-K)*%
X200170000Y-66790000D03*
%TO.P,U4,2,V_{DD}*%
X200170000Y-66140000D03*
%TO.P,U4,3,V_{BAT}*%
%TO.N,B+*%
X200170000Y-65490000D03*
%TO.P,U4,4,V_{BAT}*%
X200170000Y-64840000D03*
%TO.P,U4,5,STAT*%
%TO.N,Net-(D6-A)*%
X202445000Y-64840000D03*
%TO.P,U4,6,V_{SS}*%
%TO.N,GND*%
X202445000Y-65490000D03*
%TO.P,U4,7,NC*%
%TO.N,unconnected-(U4-NC-Pad7)*%
X202445000Y-66140000D03*
%TO.P,U4,8,PROG*%
%TO.N,Net-(U4-PROG)*%
X202445000Y-66790000D03*
%TD*%
D26*
%TO.P,D8,1,K*%
%TO.N,GND*%
X204500000Y-80700000D03*
%TO.P,D8,2,A*%
%TO.N,Net-(D8-A)*%
X202925000Y-80700000D03*
%TD*%
D27*
%TO.P,U7,THERM*%
%TO.N,unconnected-(U7-PadTHERM)*%
X191990000Y-69670000D03*
D28*
%TO.P,U7,-*%
%TO.N,Net-(Q2-Pad1)*%
X193290000Y-69670000D03*
%TO.P,U7,+*%
%TO.N,Net-(R14-Pad2)*%
X190690000Y-69670000D03*
%TD*%
D14*
%TO.P,R14,1*%
%TO.N,+6V*%
X189220000Y-67575000D03*
%TO.P,R14,2*%
%TO.N,Net-(R14-Pad2)*%
X189220000Y-69225000D03*
%TD*%
D29*
%TO.P,R18,1*%
%TO.N,A11_I2C1_CS*%
X179020000Y-66720000D03*
%TO.P,R18,2*%
%TO.N,+3V3*%
X179020000Y-65700000D03*
%TD*%
D22*
%TO.P,R19,1*%
%TO.N,A9_I2C1_SCL*%
X180500000Y-66700000D03*
%TO.P,R19,2*%
%TO.N,+3V3*%
X181520000Y-66700000D03*
%TD*%
D30*
%TO.P,C8,1*%
%TO.N,+3V3A*%
X207390000Y-74590000D03*
%TO.P,C8,2*%
%TO.N,GND*%
X208350000Y-74590000D03*
%TD*%
D31*
%TO.P,J3,1,Pin_1*%
%TO.N,Net-(D7-A)*%
X201100000Y-77800000D03*
D32*
%TO.P,J3,2,Pin_2*%
%TO.N,GND*%
X203600000Y-77800000D03*
%TD*%
D33*
%TO.P,R12,1*%
%TO.N,A1*%
X177875000Y-64500000D03*
%TO.P,R12,2*%
%TO.N,Net-(Q2-Pad2)*%
X179525000Y-64500000D03*
%TD*%
%TO.P,R13,2*%
%TO.N,GND*%
X183800000Y-64500000D03*
%TO.P,R13,1*%
%TO.N,Net-(Q2-Pad2)*%
X182150000Y-64500000D03*
%TD*%
D34*
%TO.P,D7,1,K*%
%TO.N,Net-(D7-K)*%
X192190000Y-75470000D03*
%TO.P,D7,2,A*%
%TO.N,Net-(D7-A)*%
X196190000Y-75470000D03*
%TD*%
D22*
%TO.P,R20,1*%
%TO.N,A10_I2C1_SDA*%
X180480000Y-65700000D03*
%TO.P,R20,2*%
%TO.N,+3V3*%
X181500000Y-65700000D03*
%TD*%
D33*
%TO.P,R17,1*%
%TO.N,/ON*%
X177450000Y-73800000D03*
%TO.P,R17,2*%
%TO.N,GND*%
X179100000Y-73800000D03*
%TD*%
D35*
%TO.P,C18,1*%
%TO.N,/ON*%
X178600000Y-75550000D03*
%TO.P,C18,2*%
%TO.N,GND*%
X176700000Y-75550000D03*
%TD*%
D36*
%TO.P,Q2,1*%
%TO.N,Net-(Q2-Pad1)*%
X180947500Y-64140000D03*
%TO.P,Q2,2*%
%TO.N,Net-(Q2-Pad2)*%
X179995000Y-61600000D03*
%TO.P,Q2,3*%
%TO.N,GND*%
X181900000Y-61600000D03*
%TD*%
D37*
%TO.P,C17,1*%
%TO.N,+6V*%
X197550000Y-80700000D03*
%TO.P,C17,2*%
%TO.N,GND*%
X199100000Y-80700000D03*
%TD*%
D22*
%TO.P,R6,1*%
%TO.N,A7_STATUS_LED2*%
X200780000Y-80700000D03*
%TO.P,R6,2*%
%TO.N,Net-(D8-A)*%
X201800000Y-80700000D03*
%TD*%
D38*
%TO.P,C5,1*%
%TO.N,+3V3*%
X207760000Y-67140000D03*
%TO.P,C5,2*%
%TO.N,GND*%
X207760000Y-65590000D03*
%TD*%
D30*
%TO.P,C6,1*%
%TO.N,+3V3A*%
X205330000Y-74610000D03*
%TO.P,C6,2*%
%TO.N,GND*%
X206290000Y-74610000D03*
%TD*%
D39*
%TO.N,Net-(D7-K)*%
X203920697Y-63495760D03*
X205999999Y-67014440D03*
%TO.N,GND*%
X206860000Y-75256366D03*
%TO.N,+3V3*%
X207920000Y-73251408D03*
%TO.N,A9_I2C1_SCL*%
X208470000Y-76253193D03*
%TO.N,+3V3A*%
X199525000Y-73400116D03*
%TO.N,GND*%
X205823379Y-75946621D03*
X195230000Y-65470000D03*
X201665528Y-64167710D03*
X187941091Y-65371091D03*
X179850000Y-73050000D03*
X199720000Y-68050000D03*
X177125000Y-75425000D03*
X181940000Y-79150000D03*
X204160000Y-64300000D03*
X183830000Y-71730000D03*
X182150000Y-62070000D03*
X198650000Y-74943909D03*
X185000000Y-65783011D03*
X175571972Y-73437290D03*
X196750000Y-64350000D03*
X196110000Y-72880000D03*
X178590000Y-70500000D03*
X185120000Y-71160000D03*
X185583909Y-77806091D03*
X183730000Y-65610000D03*
X206441206Y-74980000D03*
X198230000Y-65270000D03*
X199850000Y-80875000D03*
X184420000Y-64150000D03*
X198158108Y-75851892D03*
X204160000Y-64300000D03*
X187900000Y-80160000D03*
X177720000Y-72300000D03*
X203510000Y-74040000D03*
X181760000Y-74691702D03*
%TO.N,+3V3*%
X183667620Y-69550000D03*
X196960000Y-65470000D03*
X200590000Y-68630000D03*
X184236937Y-80635946D03*
X187200000Y-66120000D03*
X178800000Y-62350000D03*
X184970000Y-69880000D03*
X183763909Y-70886091D03*
X185650000Y-80720000D03*
X179220000Y-76648909D03*
X208470000Y-68060000D03*
X188920000Y-64170000D03*
X181940000Y-76340000D03*
%TO.N,B+*%
X183304127Y-66913765D03*
X190250000Y-66370000D03*
X191585546Y-65826636D03*
%TO.N,Net-(D7-K)*%
X192120000Y-74200000D03*
X194010000Y-74130000D03*
X200470000Y-79510000D03*
X206360000Y-80220000D03*
X208820000Y-77973326D03*
X204640000Y-79190000D03*
%TO.N,B+ PWRBTN*%
X184930000Y-72010000D03*
X183760000Y-74880000D03*
%TO.N,+6V*%
X190350000Y-73190000D03*
X192767500Y-73622500D03*
%TO.N,A4_USER_BTN*%
X199120000Y-79530000D03*
X198410000Y-78380000D03*
X185430000Y-79320000D03*
X197390000Y-79745002D03*
X187620000Y-76800000D03*
X200378678Y-76360418D03*
X192140000Y-76850000D03*
X198650000Y-76490000D03*
X195961091Y-79888909D03*
%TO.N,Net-(Q1-Pad2)*%
X196700000Y-77050000D03*
X195531742Y-73410798D03*
%TO.N,Net-(Q2-Pad2)*%
X180720000Y-61840000D03*
X182680000Y-63840000D03*
%TO.N,A7_STATUS_LED2*%
X201950000Y-79530000D03*
%TO.N,A0*%
X201105001Y-72552818D03*
X195936091Y-69486091D03*
X197160598Y-69869039D03*
X199188590Y-72691409D03*
X200260000Y-71660000D03*
X194240000Y-69090000D03*
%TO.N,A1*%
X192930000Y-77250000D03*
X188713107Y-81347916D03*
X177910000Y-65510000D03*
%TO.N,A11_I2C1_CS*%
X208760000Y-63580000D03*
X178797916Y-66419371D03*
%TO.N,A9_I2C1_SCL*%
X205810000Y-79480000D03*
X177490000Y-71350000D03*
X208470000Y-77310000D03*
X207855002Y-72370000D03*
%TO.N,A10_I2C1_SDA*%
X207034239Y-64880000D03*
X208820000Y-66175000D03*
X205620000Y-62660000D03*
X176830000Y-64770000D03*
%TO.N,/ON*%
X185860000Y-76660000D03*
X185940000Y-74700000D03*
%TO.N,/OFF*%
X190350000Y-75180000D03*
%TO.N,Net-(SW5-B)*%
X186060798Y-73420000D03*
%TO.N,A5_LSM6DS3TR_INT1*%
X180221091Y-77198909D03*
X189760000Y-76970000D03*
X190990000Y-77020000D03*
X198288397Y-79378397D03*
X185220000Y-76230000D03*
%TO.N,A6_LSM6DS3TR_INT2*%
X187412501Y-72281336D03*
X194290000Y-70930000D03*
X179007659Y-72857659D03*
X189600000Y-72160000D03*
X194835000Y-73133216D03*
X199770000Y-70860000D03*
%TD*%
D40*
%TO.N,/ON*%
X181670000Y-79870000D02*
X180400000Y-78600000D01*
X186330000Y-79870000D02*
X181670000Y-79870000D01*
X187600000Y-78600000D02*
X186330000Y-79870000D01*
%TO.N,/OFF*%
X189500000Y-75800000D02*
X189500000Y-75616938D01*
X189500000Y-75616938D02*
X189033062Y-75150000D01*
%TO.N,Net-(D7-K)*%
X204245660Y-63560000D02*
X207460000Y-63560000D01*
X203920697Y-63495760D02*
X204181420Y-63495760D01*
X207460000Y-63560000D02*
X208020000Y-64120000D01*
X204181420Y-63495760D02*
X204245660Y-63560000D01*
X205964439Y-67050000D02*
X205999999Y-67014440D01*
X205780000Y-67050000D02*
X205964439Y-67050000D01*
X206528214Y-66440000D02*
X205918214Y-67050000D01*
X205918214Y-67050000D02*
X205780000Y-67050000D01*
X208212986Y-66440000D02*
X206528214Y-66440000D01*
%TO.N,A10_I2C1_SDA*%
X207044239Y-64890000D02*
X207034239Y-64880000D01*
X209020000Y-64890000D02*
X207044239Y-64890000D01*
X209020000Y-65975000D02*
X209020000Y-64890000D01*
X208820000Y-66175000D02*
X209020000Y-65975000D01*
%TO.N,GND*%
X206860000Y-74254576D02*
X206860000Y-75256366D01*
X207790000Y-74030000D02*
X207084576Y-74030000D01*
X207084576Y-74030000D02*
X206860000Y-74254576D01*
X208350000Y-74590000D02*
X207790000Y-74030000D01*
%TO.N,+3V3*%
X208450000Y-68080000D02*
X208470000Y-68060000D01*
X208450000Y-72721408D02*
X208450000Y-68080000D01*
X207920000Y-73251408D02*
X208450000Y-72721408D01*
%TO.N,GND*%
X196932290Y-64167710D02*
X201665528Y-64167710D01*
X196750000Y-64350000D02*
X196932290Y-64167710D01*
%TO.N,B+*%
X199170000Y-67098794D02*
X198781206Y-66710000D01*
X199170000Y-68482792D02*
X199170000Y-67098794D01*
X198781206Y-66216295D02*
X198781206Y-66710000D01*
X199507501Y-65490000D02*
X198781206Y-66216295D01*
X200170000Y-65490000D02*
X199507501Y-65490000D01*
X200170000Y-65490000D02*
X200170000Y-64840000D01*
%TO.N,GND*%
X201532500Y-65239999D02*
X201532500Y-64300738D01*
X201532500Y-64300738D02*
X201665528Y-64167710D01*
X201782501Y-65490000D02*
X201532500Y-65239999D01*
X202445000Y-65490000D02*
X201782501Y-65490000D01*
%TO.N,Net-(U4-PROG)*%
X203609999Y-66790000D02*
X202445000Y-66790000D01*
X203880000Y-66519999D02*
X203609999Y-66790000D01*
%TO.N,Net-(D6-A)*%
X203555000Y-64840000D02*
X202445000Y-64840000D01*
X203915000Y-65200000D02*
X203555000Y-64840000D01*
%TO.N,Net-(D7-K)*%
X200170000Y-67167500D02*
X200170000Y-66790000D01*
X200162500Y-67175000D02*
X200170000Y-67167500D01*
X200170000Y-66790000D02*
X200170000Y-66225000D01*
X209020000Y-77773326D02*
X208820000Y-77973326D01*
X209020000Y-67247014D02*
X209020000Y-77773326D01*
X208212986Y-66440000D02*
X209020000Y-67247014D01*
X200737500Y-67750000D02*
X205997014Y-67750000D01*
X205997014Y-67750000D02*
X207307014Y-66440000D01*
X200162500Y-67175000D02*
X200737500Y-67750000D01*
X207307014Y-66440000D02*
X208212986Y-66440000D01*
%TO.N,+3V3*%
X195110000Y-63920000D02*
X195110000Y-62490000D01*
X195560000Y-64370000D02*
X195110000Y-63920000D01*
%TO.N,A11_I2C1_CS*%
X204390635Y-63210000D02*
X208390000Y-63210000D01*
X204390635Y-62252635D02*
X204390635Y-63210000D01*
X193098000Y-61192000D02*
X203330000Y-61192000D01*
X192415000Y-61875000D02*
X193098000Y-61192000D01*
X190389975Y-61875000D02*
X192415000Y-61875000D01*
X189354975Y-62910000D02*
X190389975Y-61875000D01*
X208390000Y-63210000D02*
X208760000Y-63580000D01*
X179630000Y-66055026D02*
X179630000Y-65511938D01*
X180316500Y-62938475D02*
X180634975Y-62620000D01*
X179020000Y-66665026D02*
X179630000Y-66055026D01*
X185590000Y-62910000D02*
X189354975Y-62910000D01*
X180316500Y-64825438D02*
X180316500Y-62938475D01*
X180634975Y-62620000D02*
X185300000Y-62620000D01*
X203330000Y-61192000D02*
X204390635Y-62252635D01*
X179020000Y-66720000D02*
X179020000Y-66665026D01*
X185300000Y-62620000D02*
X185590000Y-62910000D01*
X179630000Y-65511938D02*
X180316500Y-64825438D01*
%TO.N,A10_I2C1_SDA*%
X203802000Y-60842000D02*
X205620000Y-62660000D01*
X179364000Y-60842000D02*
X203802000Y-60842000D01*
X177225000Y-62981000D02*
X179364000Y-60842000D01*
X177225000Y-65793214D02*
X177225000Y-62981000D01*
X178671786Y-67240000D02*
X177225000Y-65793214D01*
X179774975Y-66405026D02*
X179774975Y-66833239D01*
X179774975Y-66833239D02*
X179368214Y-67240000D01*
X180480000Y-65700000D02*
X179774975Y-66405026D01*
X179368214Y-67240000D02*
X178671786Y-67240000D01*
%TO.N,GND*%
X207430001Y-70119999D02*
X203510000Y-74040000D01*
%TO.N,+3V3A*%
X199525000Y-73429974D02*
X199525000Y-73400116D01*
X200685026Y-74590000D02*
X199525000Y-73429974D01*
X205160000Y-74590000D02*
X200685026Y-74590000D01*
X205648940Y-76550000D02*
X205962500Y-76550000D01*
X205160000Y-76061060D02*
X205648940Y-76550000D01*
X205160000Y-74590000D02*
X205160000Y-76061060D01*
X205350000Y-74400000D02*
X205160000Y-74590000D01*
X207410000Y-76422500D02*
X207500000Y-76512500D01*
X207410000Y-74380000D02*
X207410000Y-76422500D01*
%TO.N,GND*%
X201458238Y-64375000D02*
X201665528Y-64167710D01*
X202175424Y-73600000D02*
X201350000Y-73600000D01*
X201350000Y-73600000D02*
X200770000Y-74180000D01*
X196380000Y-73830000D02*
X196110000Y-73560000D01*
X204340000Y-64120000D02*
X204160000Y-64300000D01*
X176930000Y-67290000D02*
X178590000Y-68950000D01*
X180427500Y-73390800D02*
X180190800Y-73390800D01*
X206441206Y-74980000D02*
X206441206Y-75328794D01*
X177720000Y-72300000D02*
X176709262Y-72300000D01*
X197536091Y-73830000D02*
X196380000Y-73830000D01*
X197310000Y-64350000D02*
X198230000Y-65270000D01*
X176700000Y-74565318D02*
X175571972Y-73437290D01*
X182214200Y-74345800D02*
X181868298Y-74691702D01*
X199720000Y-68050000D02*
X199720000Y-68537818D01*
X185411920Y-65371091D02*
X187941091Y-65371091D01*
X178590000Y-68950000D02*
X178590000Y-70500000D01*
X179100000Y-73800000D02*
X178375000Y-73075000D01*
X202830000Y-72450000D02*
X204480000Y-70800000D01*
X181868298Y-74691702D02*
X181760000Y-74691702D01*
X206470000Y-64430001D02*
X206780001Y-64120000D01*
X183830000Y-71730000D02*
X184400000Y-71160000D01*
X178375000Y-73075000D02*
X175934262Y-73075000D01*
X187850000Y-80600000D02*
X187850000Y-80210000D01*
X202830000Y-74160000D02*
X202830000Y-72450000D01*
X179509200Y-73390800D02*
X179100000Y-73800000D01*
X199850000Y-80875000D02*
X199275000Y-80875000D01*
X183730000Y-64570000D02*
X183800000Y-64500000D01*
X175934262Y-73075000D02*
X175571972Y-73437290D01*
X198230000Y-65270000D02*
X199125000Y-64375000D01*
X182150000Y-61850000D02*
X181900000Y-61600000D01*
X185000000Y-65783011D02*
X185606991Y-65783011D01*
X207060000Y-64120000D02*
X204340000Y-64120000D01*
X201982182Y-70800000D02*
X204480000Y-70800000D01*
X202950000Y-74040000D02*
X202830000Y-74160000D01*
X183730000Y-65610000D02*
X183730000Y-64570000D01*
X183800000Y-64500000D02*
X184070000Y-64500000D01*
X196110000Y-73560000D02*
X196110000Y-72880000D01*
X206441206Y-75328794D02*
X205823379Y-75946621D01*
X203600000Y-78927818D02*
X203600000Y-77800000D01*
X195780000Y-66020000D02*
X195230000Y-65470000D01*
X204500000Y-79827818D02*
X203600000Y-78927818D01*
X184240000Y-79150000D02*
X181940000Y-79150000D01*
X206470000Y-65550000D02*
X206470000Y-64430001D01*
X180190800Y-73390800D02*
X179850000Y-73050000D01*
X199720000Y-68537818D02*
X201982182Y-70800000D01*
X198230000Y-65270000D02*
X197480000Y-66020000D01*
X204500000Y-80700000D02*
X204500000Y-79827818D01*
X206510000Y-65590000D02*
X207760000Y-65590000D01*
X177125000Y-75425000D02*
X176775000Y-75425000D01*
X197480000Y-66020000D02*
X195780000Y-66020000D01*
X183010700Y-71730000D02*
X182214200Y-72526500D01*
X202830000Y-74160000D02*
X202735424Y-74160000D01*
X185000000Y-65783011D02*
X185411920Y-65371091D01*
X205900000Y-66200000D02*
X206510000Y-65590000D01*
X187850000Y-80210000D02*
X187900000Y-80160000D01*
X199275000Y-80875000D02*
X199100000Y-80700000D01*
X182214200Y-72526500D02*
X182214200Y-74345800D01*
X185583909Y-77806091D02*
X184240000Y-79150000D01*
X203510000Y-74040000D02*
X202950000Y-74040000D01*
X184400000Y-71160000D02*
X185120000Y-71160000D01*
X206780001Y-64120000D02*
X207060000Y-64120000D01*
X198650000Y-74943909D02*
X197536091Y-73830000D01*
X176709262Y-72300000D02*
X175571972Y-73437290D01*
X180427500Y-73390800D02*
X179509200Y-73390800D01*
X196750000Y-64350000D02*
X197310000Y-64350000D01*
X204900000Y-66200000D02*
X205900000Y-66200000D01*
X182150000Y-62070000D02*
X182150000Y-61850000D01*
X176775000Y-75425000D02*
X176700000Y-75500000D01*
X183830000Y-71730000D02*
X183010700Y-71730000D01*
X202735424Y-74160000D02*
X202175424Y-73600000D01*
X176700000Y-75500000D02*
X176700000Y-74565318D01*
X206510000Y-65590000D02*
X206470000Y-65550000D01*
X184070000Y-64500000D02*
X184420000Y-64150000D01*
%TO.N,+3V3*%
X182584609Y-70886091D02*
X183763909Y-70886091D01*
X183997620Y-69880000D02*
X184970000Y-69880000D01*
X184320991Y-80720000D02*
X184236937Y-80635946D01*
X183667620Y-69550000D02*
X182690700Y-69550000D01*
X208470000Y-68060000D02*
X208470000Y-67850000D01*
X178875000Y-62425000D02*
X178800000Y-62350000D01*
X187582843Y-66020000D02*
X187482843Y-66120000D01*
X200590000Y-68630000D02*
X201120000Y-68100000D01*
X185650000Y-80720000D02*
X184320991Y-80720000D01*
X183667620Y-69550000D02*
X183997620Y-69880000D01*
X206800000Y-68100000D02*
X207760000Y-67140000D01*
X179350000Y-76518909D02*
X179350000Y-74650000D01*
X179020000Y-65700000D02*
X178875000Y-65555000D01*
X179350000Y-74650000D02*
X181150000Y-74650000D01*
X182690700Y-69550000D02*
X182450800Y-69310100D01*
X187482843Y-66120000D02*
X187200000Y-66120000D01*
X181805900Y-66700000D02*
X181520000Y-66700000D01*
X188070000Y-66020000D02*
X187582843Y-66020000D01*
X208470000Y-67850000D02*
X207760000Y-67140000D01*
X188920000Y-65170000D02*
X188070000Y-66020000D01*
X182450800Y-69310100D02*
X182450800Y-67344900D01*
X181500000Y-66680000D02*
X181520000Y-66700000D01*
X178875000Y-65555000D02*
X178875000Y-62425000D01*
X182450800Y-67344900D02*
X181805900Y-66700000D01*
X195560000Y-64370000D02*
X195860000Y-64370000D01*
X181940000Y-76340000D02*
X181631091Y-76648909D01*
X179028909Y-76648909D02*
X179220000Y-76648909D01*
X179220000Y-76648909D02*
X179350000Y-76518909D01*
X195860000Y-64370000D02*
X196960000Y-65470000D01*
X181150000Y-72320700D02*
X182584609Y-70886091D01*
X181500000Y-65700000D02*
X181500000Y-66680000D01*
X181631091Y-76648909D02*
X179028909Y-76648909D01*
X181150000Y-74650000D02*
X181150000Y-72320700D01*
X188920000Y-64170000D02*
X188920000Y-65170000D01*
X201120000Y-68100000D02*
X206800000Y-68100000D01*
%TO.N,+3V3A*%
X207500000Y-76512500D02*
X207500000Y-78087500D01*
X207500000Y-78087500D02*
X205962500Y-76550000D01*
%TO.N,B+*%
X190250000Y-66370000D02*
X187727818Y-66370000D01*
X199416408Y-72141409D02*
X198618591Y-72141409D01*
X187727818Y-66370000D02*
X187184053Y-66913765D01*
X199170000Y-68482792D02*
X201305000Y-70617792D01*
X187184053Y-66913765D02*
X183304127Y-66913765D01*
X191585546Y-65826636D02*
X192468910Y-66710000D01*
X202500000Y-78410000D02*
X203612500Y-79522500D01*
X197830000Y-73080000D02*
X199870000Y-75120000D01*
X199870000Y-75120000D02*
X202170000Y-75120000D01*
X203612500Y-81156474D02*
X203343974Y-81425000D01*
X200416409Y-72463591D02*
X199738590Y-72463591D01*
X189400000Y-80600000D02*
X189430000Y-80570000D01*
X202500000Y-77194365D02*
X202500000Y-78410000D01*
X192468910Y-66710000D02*
X198781206Y-66710000D01*
X201305000Y-70617792D02*
X201305000Y-71575000D01*
X201305000Y-71575000D02*
X200416409Y-72463591D01*
X196297014Y-80600000D02*
X189400000Y-80600000D01*
X197680000Y-73080000D02*
X197830000Y-73080000D01*
X203612500Y-79522500D02*
X203612500Y-81156474D01*
X199738590Y-72463591D02*
X199416408Y-72141409D01*
X197122014Y-81425000D02*
X196297014Y-80600000D01*
X203343974Y-81425000D02*
X197122014Y-81425000D01*
X202170000Y-75120000D02*
X203372182Y-76322182D01*
X198618591Y-72141409D02*
X197680000Y-73080000D01*
X203372182Y-76322182D02*
X202500000Y-77194365D01*
%TO.N,Net-(D7-K)*%
X195280000Y-77770000D02*
X198730000Y-77770000D01*
X206360000Y-79252182D02*
X205893453Y-78785635D01*
X192120000Y-74200000D02*
X192120000Y-75400000D01*
X198730000Y-77770000D02*
X200470000Y-79510000D01*
X205044365Y-78785635D02*
X204640000Y-79190000D01*
X205893453Y-78785635D02*
X205044365Y-78785635D01*
X192120000Y-75400000D02*
X192190000Y-75470000D01*
X194010000Y-74130000D02*
X194330000Y-74450000D01*
X206360000Y-80220000D02*
X206360000Y-79252182D01*
X208020000Y-64120000D02*
X207925424Y-64120000D01*
X194330000Y-74450000D02*
X194330000Y-76820000D01*
X194330000Y-76820000D02*
X195280000Y-77770000D01*
%TO.N,B+ PWRBTN*%
X182967500Y-74087500D02*
X183760000Y-74880000D01*
X183760000Y-74880000D02*
X184350000Y-74880000D01*
X184930000Y-74300000D02*
X184930000Y-72010000D01*
X184350000Y-74880000D02*
X184930000Y-74300000D01*
X182967500Y-73390800D02*
X182967500Y-74087500D01*
%TO.N,+6V*%
X189220000Y-67575000D02*
X188681700Y-67575000D01*
X188681700Y-67575000D02*
X188047500Y-68209200D01*
X188940000Y-73590000D02*
X188940000Y-70061938D01*
X192767500Y-73622500D02*
X192767500Y-73432500D01*
X190350000Y-73190000D02*
X190350000Y-73300000D01*
X189500000Y-74150000D02*
X188940000Y-73590000D01*
X190350000Y-73300000D02*
X189500000Y-74150000D01*
X193980000Y-77130000D02*
X197550000Y-80700000D01*
X197140000Y-80700000D02*
X197550000Y-80700000D01*
X193980000Y-74895966D02*
X193980000Y-77130000D01*
X192767500Y-73622500D02*
X192767500Y-73683466D01*
X192767500Y-73432500D02*
X197680000Y-68520000D01*
X192767500Y-73683466D02*
X193980000Y-74895966D01*
X188940000Y-70061938D02*
X188047500Y-69169438D01*
X188047500Y-69169438D02*
X188047500Y-68209200D01*
%TO.N,/ON*%
X179780000Y-79870000D02*
X186330000Y-79870000D01*
X177450000Y-73800000D02*
X177450000Y-74350000D01*
X177450000Y-74350000D02*
X178600000Y-75500000D01*
X178600000Y-78690000D02*
X179780000Y-79870000D01*
X178600000Y-75500000D02*
X178600000Y-78690000D01*
%TO.N,A4_USER_BTN*%
X191420000Y-77570000D02*
X192140000Y-76850000D01*
X187620000Y-76800000D02*
X188390000Y-77570000D01*
X199818260Y-75800000D02*
X198820000Y-75800000D01*
X187400000Y-76800000D02*
X187620000Y-76800000D01*
X188390000Y-77570000D02*
X191420000Y-77570000D01*
X197390000Y-79400000D02*
X198410000Y-78380000D01*
X200249096Y-76490000D02*
X200378678Y-76360418D01*
X185430000Y-78770000D02*
X187400000Y-76800000D01*
X193630000Y-76700000D02*
X193630000Y-77557818D01*
X198650000Y-76490000D02*
X200249096Y-76490000D01*
X192140000Y-76850000D02*
X192290000Y-76700000D01*
X185430000Y-79320000D02*
X185430000Y-78770000D01*
X193630000Y-77557818D02*
X195961091Y-79888909D01*
X199120000Y-79090000D02*
X198410000Y-78380000D01*
X199120000Y-79530000D02*
X199120000Y-79090000D01*
X197390000Y-79745002D02*
X197390000Y-79400000D01*
X192290000Y-76700000D02*
X193630000Y-76700000D01*
X200378678Y-76360418D02*
X199818260Y-75800000D01*
%TO.N,Net-(D6-A)*%
X203890000Y-65225000D02*
X203915000Y-65200000D01*
%TO.N,Net-(D6-K)*%
X204885000Y-65200000D02*
X205880000Y-65200000D01*
X205880000Y-65200000D02*
X205900000Y-65180000D01*
%TO.N,Net-(D7-A)*%
X196190000Y-75470000D02*
X196590000Y-75470000D01*
X200720000Y-77420000D02*
X201100000Y-77800000D01*
X196590000Y-75470000D02*
X198540000Y-77420000D01*
X198540000Y-77420000D02*
X200720000Y-77420000D01*
%TO.N,Net-(D8-A)*%
X202925000Y-80700000D02*
X201800000Y-80700000D01*
%TO.N,Net-(Q1-Pad2)*%
X195405966Y-77050000D02*
X194690000Y-76334034D01*
X196700000Y-77050000D02*
X195405966Y-77050000D01*
X194690000Y-76334034D02*
X194690000Y-74252540D01*
X194690000Y-74252540D02*
X195531742Y-73410798D01*
%TO.N,Net-(Q2-Pad1)*%
X191035546Y-65415546D02*
X188910000Y-63290000D01*
X191035546Y-66054454D02*
X191035546Y-65415546D01*
X193290000Y-69670000D02*
X193290000Y-67670000D01*
X181797500Y-63290000D02*
X180947500Y-64140000D01*
X188910000Y-63290000D02*
X181797500Y-63290000D01*
X192651092Y-67670000D02*
X191035546Y-66054454D01*
X193290000Y-67670000D02*
X192651092Y-67670000D01*
%TO.N,Net-(Q2-Pad2)*%
X182150000Y-64500000D02*
X182150000Y-64370000D01*
X179525000Y-63235000D02*
X179525000Y-64500000D01*
X180720000Y-61840000D02*
X180235000Y-61840000D01*
X180235000Y-61840000D02*
X179995000Y-61600000D01*
X182150000Y-64370000D02*
X182680000Y-63840000D01*
X179995000Y-62765000D02*
X179525000Y-63235000D01*
X179995000Y-61600000D02*
X179995000Y-62765000D01*
%TO.N,Net-(U4-PROG)*%
X203880000Y-66200000D02*
X203880000Y-66519999D01*
%TO.N,A7_STATUS_LED2*%
X200780000Y-80700000D02*
X201950000Y-79530000D01*
%TO.N,/OFF*%
X187800000Y-75800000D02*
X187600000Y-75600000D01*
%TO.N,A0*%
X199188590Y-72691409D02*
X199310772Y-72813591D01*
X200260000Y-71660000D02*
X200320000Y-71600000D01*
X199579039Y-69869039D02*
X197160598Y-69869039D01*
X200320000Y-70610000D02*
X199579039Y-69869039D01*
X195936091Y-69486091D02*
X194636091Y-69486091D01*
X200844228Y-72813591D02*
X201105001Y-72552818D01*
X199310772Y-72813591D02*
X200844228Y-72813591D01*
X194636091Y-69486091D02*
X194240000Y-69090000D01*
X200320000Y-71600000D02*
X200320000Y-70610000D01*
%TO.N,A1*%
X192930000Y-77250000D02*
X192698560Y-77250000D01*
X188972014Y-79875000D02*
X188700000Y-80147014D01*
X177910000Y-65510000D02*
X177910000Y-64535000D01*
X188700000Y-80147014D02*
X188700000Y-81334809D01*
X177910000Y-64535000D02*
X177875000Y-64500000D01*
X188700000Y-81334809D02*
X188713107Y-81347916D01*
X190073560Y-79875000D02*
X188972014Y-79875000D01*
X192698560Y-77250000D02*
X190073560Y-79875000D01*
%TO.N,Net-(R14-Pad2)*%
X189220000Y-69225000D02*
X190245000Y-69225000D01*
X190245000Y-69225000D02*
X190690000Y-69670000D01*
%TO.N,A11_I2C1_CS*%
X178800000Y-66380000D02*
X178797916Y-66382084D01*
X179020000Y-66600000D02*
X178800000Y-66380000D01*
X179020000Y-66720000D02*
X179020000Y-66600000D01*
X178797916Y-66382084D02*
X178797916Y-66419371D01*
%TO.N,A9_I2C1_SCL*%
X180944200Y-69310100D02*
X180944200Y-67144200D01*
X175540000Y-60530000D02*
X178640000Y-60530000D01*
X177490000Y-71350000D02*
X176425966Y-71350000D01*
X209370000Y-61809512D02*
X209370000Y-80530000D01*
X209370000Y-80530000D02*
X208560000Y-81340000D01*
X205810000Y-80510000D02*
X205810000Y-79480000D01*
X175080000Y-70004034D02*
X175080000Y-60990000D01*
X176425966Y-71350000D02*
X175080000Y-70004034D01*
X180944200Y-67144200D02*
X180500000Y-66700000D01*
X208052488Y-60492000D02*
X209370000Y-61809512D01*
X177490000Y-71350000D02*
X178904300Y-71350000D01*
X178904300Y-71350000D02*
X180944200Y-69310100D01*
X178640000Y-60530000D02*
X178678000Y-60492000D01*
X178678000Y-60492000D02*
X208052488Y-60492000D01*
X206640000Y-81340000D02*
X205810000Y-80510000D01*
X175080000Y-60990000D02*
X175540000Y-60530000D01*
X208560000Y-81340000D02*
X206640000Y-81340000D01*
%TO.N,A10_I2C1_SDA*%
X179358214Y-67250000D02*
X178681786Y-67250000D01*
X180480000Y-65700000D02*
X179980000Y-66200000D01*
X176830000Y-65398214D02*
X176830000Y-64770000D01*
X179980000Y-66200000D02*
X179980000Y-66628214D01*
X179980000Y-66628214D02*
X179358214Y-67250000D01*
X178681786Y-67250000D02*
X176830000Y-65398214D01*
%TO.N,/ON*%
X185940000Y-74700000D02*
X186777500Y-73862500D01*
X183920000Y-78600000D02*
X185860000Y-76660000D01*
X180400000Y-78600000D02*
X183920000Y-78600000D01*
X186777500Y-73862500D02*
X186777500Y-73390800D01*
%TO.N,/OFF*%
X190320000Y-75150000D02*
X190350000Y-75180000D01*
X189033062Y-75150000D02*
X190320000Y-75150000D01*
X188533062Y-74650000D02*
X189033062Y-75150000D01*
X186550000Y-75600000D02*
X186550000Y-74650000D01*
X186550000Y-74650000D02*
X188533062Y-74650000D01*
X180400000Y-75600000D02*
X186550000Y-75600000D01*
%TO.N,Net-(SW5-B)*%
X186060798Y-73420000D02*
X185536700Y-73420000D01*
X185536700Y-73420000D02*
X185507500Y-73390800D01*
%TO.N,A5_LSM6DS3TR_INT1*%
X190940000Y-76970000D02*
X189760000Y-76970000D01*
X180221091Y-77198909D02*
X184543273Y-77198909D01*
X185220000Y-76522182D02*
X185220000Y-76230000D01*
X184543273Y-77198909D02*
X185220000Y-76522182D01*
X190990000Y-77020000D02*
X190940000Y-76970000D01*
%TO.N,A6_LSM6DS3TR_INT2*%
X194290000Y-70930000D02*
X192820000Y-72400000D01*
X199770000Y-70860000D02*
X197108216Y-70860000D01*
X185741165Y-70610000D02*
X184523909Y-70610000D01*
X197108216Y-70860000D02*
X194835000Y-73133216D01*
X181529227Y-70336091D02*
X179007659Y-72857659D01*
X192820000Y-72400000D02*
X189920000Y-72400000D01*
X184250000Y-70336091D02*
X181529227Y-70336091D01*
X184523909Y-70610000D02*
X184250000Y-70336091D01*
X187412501Y-72281336D02*
X185741165Y-70610000D01*
X189920000Y-72400000D02*
X189680000Y-72160000D01*
X189680000Y-72160000D02*
X189600000Y-72160000D01*
%TO.N,/OFF*%
X189500000Y-75800000D02*
X187800000Y-75800000D01*
%TD*%
%TA.AperFunction,Conductor*%
%TO.N,GND*%
G36*
X186842952Y-80308798D02*
G01*
X186887299Y-80337299D01*
X186900000Y-80350000D01*
X187975500Y-80350000D01*
X188042539Y-80369685D01*
X188088294Y-80422489D01*
X188099500Y-80474000D01*
X188099500Y-80726000D01*
X188079815Y-80793039D01*
X188027011Y-80838794D01*
X187975500Y-80850000D01*
X186900001Y-80850000D01*
X186900001Y-80898322D01*
X186910144Y-80997607D01*
X186963452Y-81158481D01*
X186963457Y-81158492D01*
X187052424Y-81302728D01*
X187052427Y-81302732D01*
X187172267Y-81422572D01*
X187177935Y-81427054D01*
X187176771Y-81428525D01*
X187217083Y-81473343D01*
X187228306Y-81542305D01*
X187200462Y-81606388D01*
X187142394Y-81645244D01*
X187105252Y-81650934D01*
X186103561Y-81650857D01*
X186036524Y-81631167D01*
X185990773Y-81578360D01*
X185980834Y-81509201D01*
X186009864Y-81445647D01*
X186037596Y-81421865D01*
X186152262Y-81349816D01*
X186279816Y-81222262D01*
X186375789Y-81069522D01*
X186435368Y-80899255D01*
X186440918Y-80850000D01*
X186455565Y-80720003D01*
X186455565Y-80719997D01*
X186438862Y-80571755D01*
X186450916Y-80502933D01*
X186498265Y-80451553D01*
X186529987Y-80438097D01*
X186561785Y-80429577D01*
X186620804Y-80395502D01*
X186698716Y-80350520D01*
X186711937Y-80337299D01*
X186773260Y-80303814D01*
X186842952Y-80308798D01*
G37*
%TD.AperFunction*%
%TA.AperFunction,Conductor*%
G36*
X174675203Y-70448919D02*
G01*
X174681681Y-70454951D01*
X174718349Y-70491619D01*
X174718355Y-70491624D01*
X175941105Y-71714374D01*
X175941115Y-71714385D01*
X175945445Y-71718715D01*
X175945446Y-71718716D01*
X176057250Y-71830520D01*
X176057252Y-71830521D01*
X176057256Y-71830524D01*
X176156109Y-71887596D01*
X176194182Y-71909577D01*
X176305985Y-71939534D01*
X176346908Y-71950500D01*
X176346909Y-71950500D01*
X176907588Y-71950500D01*
X176974627Y-71970185D01*
X176984903Y-71977555D01*
X176987736Y-71979814D01*
X176987738Y-71979816D01*
X177100320Y-72050556D01*
X177115055Y-72059815D01*
X177140478Y-72075789D01*
X177300748Y-72131870D01*
X177310745Y-72135368D01*
X177310750Y-72135369D01*
X177489996Y-72155565D01*
X177490000Y-72155565D01*
X177490004Y-72155565D01*
X177669249Y-72135369D01*
X177669252Y-72135368D01*
X177669255Y-72135368D01*
X177839522Y-72075789D01*
X177992262Y-71979816D01*
X177992267Y-71979810D01*
X177995097Y-71977555D01*
X177997275Y-71976665D01*
X177998158Y-71976111D01*
X177998255Y-71976265D01*
X178059783Y-71951145D01*
X178072412Y-71950500D01*
X178516372Y-71950500D01*
X178583411Y-71970185D01*
X178629166Y-72022989D01*
X178639110Y-72092147D01*
X178610085Y-72155703D01*
X178582344Y-72179494D01*
X178505396Y-72227843D01*
X178377843Y-72355396D01*
X178281870Y-72508135D01*
X178222290Y-72678404D01*
X178222289Y-72678408D01*
X178204515Y-72836164D01*
X178177448Y-72900578D01*
X178119854Y-72940133D01*
X178050017Y-72942270D01*
X178017149Y-72928398D01*
X177939606Y-72881522D01*
X177777196Y-72830914D01*
X177777194Y-72830913D01*
X177777192Y-72830913D01*
X177727778Y-72826423D01*
X177706616Y-72824500D01*
X177193384Y-72824500D01*
X177174145Y-72826248D01*
X177122807Y-72830913D01*
X176960393Y-72881522D01*
X176814811Y-72969530D01*
X176694530Y-73089811D01*
X176606522Y-73235393D01*
X176555913Y-73397807D01*
X176550782Y-73454275D01*
X176549500Y-73468384D01*
X176549500Y-74131616D01*
X176549825Y-74135187D01*
X176554785Y-74189779D01*
X176541248Y-74258325D01*
X176492801Y-74308670D01*
X176431298Y-74325000D01*
X176400030Y-74325000D01*
X176400012Y-74325001D01*
X176297302Y-74335494D01*
X176130880Y-74390641D01*
X176130875Y-74390643D01*
X175981654Y-74482684D01*
X175857684Y-74606654D01*
X175765643Y-74755875D01*
X175765641Y-74755880D01*
X175710494Y-74922302D01*
X175710493Y-74922309D01*
X175700000Y-75025013D01*
X175700000Y-75300000D01*
X176826000Y-75300000D01*
X176893039Y-75319685D01*
X176938794Y-75372489D01*
X176950000Y-75424000D01*
X176950000Y-76774999D01*
X176999972Y-76774999D01*
X176999986Y-76774998D01*
X177102697Y-76764505D01*
X177269119Y-76709358D01*
X177269124Y-76709356D01*
X177418345Y-76617315D01*
X177542318Y-76493342D01*
X177544165Y-76490348D01*
X177545969Y-76488724D01*
X177546798Y-76487677D01*
X177546976Y-76487818D01*
X177596110Y-76443621D01*
X177665073Y-76432396D01*
X177729156Y-76460236D01*
X177755243Y-76490341D01*
X177757288Y-76493656D01*
X177881344Y-76617712D01*
X177940596Y-76654258D01*
X177987321Y-76706204D01*
X177999500Y-76759797D01*
X177999500Y-78603330D01*
X177999499Y-78603348D01*
X177999499Y-78769054D01*
X177999498Y-78769054D01*
X178040423Y-78921786D01*
X178040424Y-78921787D01*
X178063958Y-78962549D01*
X178104681Y-79033084D01*
X178119481Y-79058717D01*
X178238349Y-79177585D01*
X178238355Y-79177590D01*
X179295139Y-80234374D01*
X179295149Y-80234385D01*
X179299479Y-80238715D01*
X179299480Y-80238716D01*
X179411284Y-80350520D01*
X179489196Y-80395502D01*
X179489197Y-80395503D01*
X179548209Y-80429574D01*
X179548212Y-80429576D01*
X179548214Y-80429576D01*
X179548215Y-80429577D01*
X179700943Y-80470501D01*
X179700946Y-80470501D01*
X179866653Y-80470501D01*
X179866669Y-80470500D01*
X181590942Y-80470500D01*
X181590943Y-80470500D01*
X183311257Y-80470500D01*
X183378296Y-80490185D01*
X183424051Y-80542989D01*
X183434477Y-80608383D01*
X183431372Y-80635941D01*
X183431372Y-80635949D01*
X183451567Y-80815195D01*
X183451568Y-80815200D01*
X183511148Y-80985469D01*
X183563963Y-81069523D01*
X183607121Y-81138208D01*
X183734675Y-81265762D01*
X183868446Y-81349816D01*
X183887415Y-81361735D01*
X184024354Y-81409652D01*
X184081130Y-81450374D01*
X184106878Y-81515327D01*
X184093422Y-81583888D01*
X184045035Y-81634291D01*
X183983390Y-81650694D01*
X174952411Y-81650000D01*
X174947574Y-81649905D01*
X174891592Y-81647715D01*
X174858122Y-81641741D01*
X174749404Y-81606417D01*
X174714839Y-81588806D01*
X174624354Y-81523065D01*
X174596934Y-81495645D01*
X174531191Y-81405158D01*
X174513582Y-81370595D01*
X174478258Y-81261877D01*
X174472284Y-81228405D01*
X174470095Y-81172428D01*
X174470000Y-81167583D01*
X174470000Y-80064452D01*
X175369499Y-80064452D01*
X175410253Y-80269329D01*
X175410255Y-80269337D01*
X175490193Y-80462328D01*
X175490200Y-80462341D01*
X175606255Y-80636028D01*
X175606258Y-80636032D01*
X175753967Y-80783741D01*
X175753971Y-80783744D01*
X175927658Y-80899799D01*
X175927671Y-80899806D01*
X176072414Y-80959759D01*
X176120664Y-80979745D01*
X176149435Y-80985468D01*
X176325547Y-81020500D01*
X176325550Y-81020500D01*
X176534452Y-81020500D01*
X176637593Y-80999983D01*
X176739336Y-80979745D01*
X176932335Y-80899803D01*
X177106029Y-80783744D01*
X177253744Y-80636029D01*
X177369803Y-80462335D01*
X177449745Y-80269336D01*
X177478687Y-80123837D01*
X177490500Y-80064452D01*
X177490500Y-79855547D01*
X177449746Y-79650670D01*
X177449745Y-79650664D01*
X177418770Y-79575882D01*
X177369806Y-79457671D01*
X177369799Y-79457658D01*
X177253744Y-79283971D01*
X177253741Y-79283967D01*
X177106032Y-79136258D01*
X177106028Y-79136255D01*
X176932341Y-79020200D01*
X176932328Y-79020193D01*
X176739337Y-78940255D01*
X176739329Y-78940253D01*
X176534452Y-78899500D01*
X176534450Y-78899500D01*
X176325550Y-78899500D01*
X176325548Y-78899500D01*
X176120670Y-78940253D01*
X176120662Y-78940255D01*
X175927671Y-79020193D01*
X175927658Y-79020200D01*
X175753971Y-79136255D01*
X175753967Y-79136258D01*
X175606258Y-79283967D01*
X175606255Y-79283971D01*
X175490200Y-79457658D01*
X175490193Y-79457671D01*
X175410255Y-79650662D01*
X175410253Y-79650670D01*
X175369500Y-79855547D01*
X175369500Y-79855550D01*
X175369500Y-80064450D01*
X175369500Y-80064452D01*
X175369499Y-80064452D01*
X174470000Y-80064452D01*
X174470000Y-76074986D01*
X175700001Y-76074986D01*
X175710494Y-76177697D01*
X175765641Y-76344119D01*
X175765643Y-76344124D01*
X175857684Y-76493345D01*
X175981654Y-76617315D01*
X176130875Y-76709356D01*
X176130880Y-76709358D01*
X176297302Y-76764505D01*
X176297309Y-76764506D01*
X176400019Y-76774999D01*
X176449999Y-76774998D01*
X176450000Y-76774998D01*
X176450000Y-75800000D01*
X175700001Y-75800000D01*
X175700001Y-76074986D01*
X174470000Y-76074986D01*
X174470000Y-70542632D01*
X174489685Y-70475593D01*
X174542489Y-70429838D01*
X174611647Y-70419894D01*
X174675203Y-70448919D01*
G37*
%TD.AperFunction*%
%TA.AperFunction,Conductor*%
G36*
X204502539Y-75210185D02*
G01*
X204548294Y-75262989D01*
X204559500Y-75314500D01*
X204559500Y-75974390D01*
X204559499Y-75974408D01*
X204559499Y-76140114D01*
X204559498Y-76140114D01*
X204595818Y-76275659D01*
X204600423Y-76292845D01*
X204627650Y-76340003D01*
X204629358Y-76342960D01*
X204629359Y-76342964D01*
X204629360Y-76342964D01*
X204679480Y-76429776D01*
X204791284Y-76541580D01*
X204791285Y-76541581D01*
X205280224Y-77030520D01*
X205280226Y-77030521D01*
X205280230Y-77030524D01*
X205417149Y-77109573D01*
X205417156Y-77109577D01*
X205569883Y-77150501D01*
X205662404Y-77150501D01*
X205729443Y-77170186D01*
X205750085Y-77186820D01*
X206488181Y-77924916D01*
X206521666Y-77986239D01*
X206524500Y-78012597D01*
X206524500Y-78268084D01*
X206504815Y-78335123D01*
X206452011Y-78380878D01*
X206382853Y-78390822D01*
X206319297Y-78361797D01*
X206312819Y-78355765D01*
X206262170Y-78305116D01*
X206262169Y-78305115D01*
X206167605Y-78250519D01*
X206125238Y-78226058D01*
X205972510Y-78185134D01*
X205814396Y-78185134D01*
X205806800Y-78185134D01*
X205806784Y-78185135D01*
X205073999Y-78185135D01*
X205006960Y-78165450D01*
X204961205Y-78112646D01*
X204951669Y-78061119D01*
X204950000Y-78061119D01*
X204950000Y-78050000D01*
X204033012Y-78050000D01*
X204065925Y-77992993D01*
X204100000Y-77865826D01*
X204100000Y-77734174D01*
X204065925Y-77607007D01*
X204033012Y-77550000D01*
X204950000Y-77550000D01*
X204950000Y-77543753D01*
X204916757Y-77333872D01*
X204916757Y-77333869D01*
X204851095Y-77131782D01*
X204754620Y-76942442D01*
X204629727Y-76770540D01*
X204629723Y-76770535D01*
X204479464Y-76620276D01*
X204479459Y-76620272D01*
X204307557Y-76495379D01*
X204118225Y-76398908D01*
X204058362Y-76379457D01*
X204000687Y-76340018D01*
X203973490Y-76275659D01*
X203972682Y-76261526D01*
X203972682Y-76243126D01*
X203972682Y-76243125D01*
X203965799Y-76217438D01*
X203931759Y-76090397D01*
X203852701Y-75953466D01*
X203301416Y-75402181D01*
X203267931Y-75340858D01*
X203272915Y-75271166D01*
X203314787Y-75215233D01*
X203380251Y-75190816D01*
X203389097Y-75190500D01*
X204435500Y-75190500D01*
X204502539Y-75210185D01*
G37*
%TD.AperFunction*%
%TA.AperFunction,Conductor*%
G36*
X206483039Y-74379685D02*
G01*
X206528794Y-74432489D01*
X206540000Y-74484000D01*
X206540000Y-75414503D01*
X206650905Y-75382284D01*
X206720775Y-75382483D01*
X206779445Y-75420425D01*
X206808288Y-75484064D01*
X206809500Y-75501360D01*
X206809500Y-75659466D01*
X206789815Y-75726505D01*
X206773181Y-75747147D01*
X206675719Y-75844608D01*
X206675716Y-75844612D01*
X206587455Y-75987704D01*
X206587449Y-75987718D01*
X206566558Y-76050761D01*
X206526785Y-76108205D01*
X206462269Y-76135027D01*
X206393493Y-76122711D01*
X206361172Y-76099436D01*
X206331217Y-76069481D01*
X206331216Y-76069480D01*
X206227292Y-76009480D01*
X206227291Y-76009479D01*
X206194283Y-75990422D01*
X206134450Y-75974390D01*
X206041557Y-75949499D01*
X206041554Y-75949499D01*
X205949037Y-75949499D01*
X205881998Y-75929814D01*
X205861356Y-75913180D01*
X205796819Y-75848643D01*
X205763334Y-75787320D01*
X205760500Y-75760962D01*
X205760500Y-75498455D01*
X205780185Y-75431416D01*
X205832989Y-75385661D01*
X205902147Y-75375717D01*
X205919095Y-75379378D01*
X206040000Y-75414503D01*
X206040000Y-75108352D01*
X206057267Y-75045233D01*
X206062494Y-75036395D01*
X206094274Y-74927011D01*
X206107642Y-74880997D01*
X206107643Y-74880991D01*
X206109464Y-74857853D01*
X206110500Y-74844690D01*
X206110500Y-74484000D01*
X206130185Y-74416961D01*
X206182989Y-74371206D01*
X206234500Y-74360000D01*
X206416000Y-74360000D01*
X206483039Y-74379685D01*
G37*
%TD.AperFunction*%
%TA.AperFunction,Conductor*%
G36*
X197996941Y-74100184D02*
G01*
X198017583Y-74116818D01*
X198888583Y-74987819D01*
X198922068Y-75049142D01*
X198917084Y-75118834D01*
X198875212Y-75174767D01*
X198809748Y-75199184D01*
X198800902Y-75199500D01*
X198740943Y-75199500D01*
X198588216Y-75240423D01*
X198588209Y-75240426D01*
X198451290Y-75319475D01*
X198451282Y-75319481D01*
X198339481Y-75431282D01*
X198339475Y-75431290D01*
X198260426Y-75568209D01*
X198260423Y-75568216D01*
X198219500Y-75720943D01*
X198219500Y-75746560D01*
X198199815Y-75813599D01*
X198161476Y-75851551D01*
X198147741Y-75860181D01*
X198142294Y-75864526D01*
X198140412Y-75862167D01*
X198090857Y-75889227D01*
X198021165Y-75884243D01*
X197965232Y-75842371D01*
X197940815Y-75776907D01*
X197940499Y-75768061D01*
X197940499Y-74769998D01*
X197940498Y-74769981D01*
X197929999Y-74667203D01*
X197929998Y-74667200D01*
X197920076Y-74637258D01*
X197874814Y-74500666D01*
X197782712Y-74351344D01*
X197723548Y-74292180D01*
X197690063Y-74230857D01*
X197695047Y-74161165D01*
X197736919Y-74105232D01*
X197802383Y-74080815D01*
X197811229Y-74080499D01*
X197929902Y-74080499D01*
X197996941Y-74100184D01*
G37*
%TD.AperFunction*%
%TA.AperFunction,Conductor*%
G36*
X182391925Y-74637258D02*
G01*
X182406806Y-74646821D01*
X182434029Y-74667200D01*
X182458468Y-74685495D01*
X182458471Y-74685497D01*
X182593316Y-74735791D01*
X182619219Y-74738575D01*
X182652927Y-74742200D01*
X182721601Y-74742199D01*
X182788640Y-74761883D01*
X182809283Y-74778518D01*
X182818584Y-74787819D01*
X182852069Y-74849142D01*
X182847085Y-74918834D01*
X182805213Y-74974767D01*
X182739749Y-74999184D01*
X182730903Y-74999500D01*
X181839635Y-74999500D01*
X181772596Y-74979815D01*
X181726841Y-74927011D01*
X181716897Y-74857853D01*
X181719860Y-74843409D01*
X181722352Y-74834108D01*
X181758715Y-74774447D01*
X181821562Y-74743916D01*
X181842127Y-74742199D01*
X182012071Y-74742199D01*
X182012072Y-74742199D01*
X182071683Y-74735791D01*
X182206531Y-74685496D01*
X182258189Y-74646824D01*
X182323652Y-74622407D01*
X182391925Y-74637258D01*
G37*
%TD.AperFunction*%
%TA.AperFunction,Conductor*%
G36*
X204523334Y-70505627D02*
G01*
X204567681Y-70534128D01*
X204745871Y-70712318D01*
X204779356Y-70773641D01*
X204774372Y-70843333D01*
X204745871Y-70887680D01*
X201883552Y-73749999D01*
X201911739Y-73818047D01*
X201919208Y-73887517D01*
X201887933Y-73949996D01*
X201827844Y-73985648D01*
X201797178Y-73989500D01*
X200985124Y-73989500D01*
X200918085Y-73969815D01*
X200897443Y-73953181D01*
X200743761Y-73799499D01*
X200570032Y-73625771D01*
X200536548Y-73564449D01*
X200541532Y-73494758D01*
X200583403Y-73438824D01*
X200648868Y-73414407D01*
X200657714Y-73414091D01*
X200757559Y-73414091D01*
X200757575Y-73414092D01*
X200765171Y-73414092D01*
X200923284Y-73414092D01*
X200923285Y-73414092D01*
X200959201Y-73404468D01*
X201029049Y-73406129D01*
X201086912Y-73445291D01*
X201107476Y-73480905D01*
X201111649Y-73492093D01*
X201197808Y-73607185D01*
X201197813Y-73607190D01*
X201267264Y-73659182D01*
X201267265Y-73659181D01*
X204392319Y-70534128D01*
X204453642Y-70500643D01*
X204523334Y-70505627D01*
G37*
%TD.AperFunction*%
%TA.AperFunction,Conductor*%
G36*
X183248536Y-71506276D02*
G01*
X183258812Y-71513646D01*
X183261645Y-71515905D01*
X183261647Y-71515907D01*
X183414387Y-71611880D01*
X183527672Y-71651520D01*
X183584654Y-71671459D01*
X183584659Y-71671460D01*
X183763905Y-71691656D01*
X183763909Y-71691656D01*
X183763913Y-71691656D01*
X183943158Y-71671460D01*
X183943161Y-71671459D01*
X183943164Y-71671459D01*
X183943165Y-71671458D01*
X183943168Y-71671458D01*
X183993213Y-71653946D01*
X184062992Y-71650383D01*
X184123620Y-71685112D01*
X184155847Y-71747105D01*
X184151211Y-71811940D01*
X184144633Y-71830738D01*
X184144630Y-71830749D01*
X184133528Y-71929284D01*
X184106461Y-71993698D01*
X184048866Y-72033253D01*
X184010309Y-72039400D01*
X183922930Y-72039400D01*
X183922923Y-72039401D01*
X183863316Y-72045808D01*
X183728471Y-72096102D01*
X183728468Y-72096104D01*
X183676811Y-72134775D01*
X183611346Y-72159192D01*
X183543073Y-72144340D01*
X183528189Y-72134775D01*
X183476531Y-72096104D01*
X183476528Y-72096102D01*
X183341686Y-72045810D01*
X183341685Y-72045809D01*
X183341683Y-72045809D01*
X183282073Y-72039400D01*
X183282063Y-72039400D01*
X182652929Y-72039400D01*
X182652923Y-72039401D01*
X182585604Y-72046638D01*
X182585251Y-72043358D01*
X182530459Y-72040369D01*
X182473826Y-71999448D01*
X182448307Y-71934406D01*
X182462004Y-71865892D01*
X182484137Y-71835797D01*
X182797027Y-71522907D01*
X182858349Y-71489425D01*
X182884707Y-71486591D01*
X183181497Y-71486591D01*
X183248536Y-71506276D01*
G37*
%TD.AperFunction*%
%TA.AperFunction,Conductor*%
G36*
X178441706Y-67809132D02*
G01*
X178442151Y-67807473D01*
X178449999Y-67809575D01*
X178450001Y-67809577D01*
X178602729Y-67850501D01*
X178602732Y-67850501D01*
X178768439Y-67850501D01*
X178768455Y-67850500D01*
X179271545Y-67850500D01*
X179271561Y-67850501D01*
X179279157Y-67850501D01*
X179437269Y-67850501D01*
X179437271Y-67850501D01*
X179504207Y-67832565D01*
X179574055Y-67834226D01*
X179631918Y-67873388D01*
X179659423Y-67937616D01*
X179660300Y-67952339D01*
X179660300Y-69107970D01*
X179660301Y-69107976D01*
X179666708Y-69167583D01*
X179717002Y-69302428D01*
X179717006Y-69302435D01*
X179803252Y-69417644D01*
X179807655Y-69422047D01*
X179841140Y-69483370D01*
X179836156Y-69553062D01*
X179807655Y-69597409D01*
X178691884Y-70713181D01*
X178630561Y-70746666D01*
X178604203Y-70749500D01*
X178523224Y-70749500D01*
X178456185Y-70729815D01*
X178410430Y-70677011D01*
X178400486Y-70607853D01*
X178405516Y-70586501D01*
X178419999Y-70542797D01*
X178430500Y-70440009D01*
X178430499Y-69139992D01*
X178419999Y-69037203D01*
X178364814Y-68870666D01*
X178272712Y-68721344D01*
X178148656Y-68597288D01*
X177999334Y-68505186D01*
X177999332Y-68505185D01*
X177993440Y-68501551D01*
X177946716Y-68449603D01*
X177935493Y-68380641D01*
X177963337Y-68316558D01*
X177970856Y-68308330D01*
X178109728Y-68169458D01*
X178234622Y-67997555D01*
X178299206Y-67870802D01*
X178347180Y-67820005D01*
X178415001Y-67803210D01*
X178441706Y-67809132D01*
G37*
%TD.AperFunction*%
%TA.AperFunction,Conductor*%
G36*
X188074210Y-63910185D02*
G01*
X188119965Y-63962989D01*
X188130391Y-64028384D01*
X188114435Y-64169997D01*
X188114435Y-64170003D01*
X188134630Y-64349249D01*
X188134631Y-64349254D01*
X188194211Y-64519523D01*
X188290185Y-64672263D01*
X188292445Y-64675097D01*
X188293334Y-64677275D01*
X188293889Y-64678158D01*
X188293734Y-64678255D01*
X188318855Y-64739783D01*
X188319500Y-64752412D01*
X188319500Y-64869902D01*
X188299815Y-64936941D01*
X188283181Y-64957583D01*
X187857584Y-65383181D01*
X187796261Y-65416666D01*
X187769903Y-65419500D01*
X187625494Y-65419500D01*
X187559523Y-65400494D01*
X187549525Y-65394212D01*
X187379254Y-65334631D01*
X187379249Y-65334630D01*
X187200004Y-65314435D01*
X187199996Y-65314435D01*
X187020750Y-65334630D01*
X187020745Y-65334631D01*
X186850476Y-65394211D01*
X186697737Y-65490184D01*
X186570184Y-65617737D01*
X186474211Y-65770476D01*
X186414631Y-65940745D01*
X186414630Y-65940750D01*
X186394435Y-66119996D01*
X186394435Y-66120005D01*
X186400674Y-66175383D01*
X186388619Y-66244204D01*
X186341269Y-66295583D01*
X186277454Y-66313265D01*
X183886539Y-66313265D01*
X183819500Y-66293580D01*
X183809224Y-66286210D01*
X183806390Y-66283950D01*
X183806389Y-66283949D01*
X183719053Y-66229072D01*
X183653650Y-66187976D01*
X183483381Y-66128396D01*
X183483376Y-66128395D01*
X183304131Y-66108200D01*
X183304123Y-66108200D01*
X183124877Y-66128395D01*
X183124872Y-66128396D01*
X182954603Y-66187976D01*
X182801864Y-66283949D01*
X182674311Y-66411502D01*
X182638313Y-66468794D01*
X182585978Y-66515085D01*
X182516925Y-66525733D01*
X182453076Y-66497358D01*
X182445638Y-66490503D01*
X182293490Y-66338355D01*
X182293488Y-66338352D01*
X182276490Y-66321354D01*
X182245093Y-66268262D01*
X182242870Y-66260609D01*
X182242671Y-66260272D01*
X182233156Y-66244183D01*
X182215974Y-66176462D01*
X182220813Y-66146469D01*
X182226064Y-66128397D01*
X182257904Y-66018803D01*
X182267664Y-65985208D01*
X182267665Y-65985202D01*
X182267719Y-65984515D01*
X182270500Y-65949181D01*
X182270499Y-65599499D01*
X182290183Y-65532461D01*
X182342987Y-65486706D01*
X182394499Y-65475500D01*
X182406613Y-65475500D01*
X182406616Y-65475500D01*
X182477196Y-65469086D01*
X182639606Y-65418478D01*
X182785185Y-65330472D01*
X182887673Y-65227983D01*
X182948994Y-65194499D01*
X183018685Y-65199483D01*
X183063034Y-65227984D01*
X183165122Y-65330072D01*
X183310604Y-65418019D01*
X183310603Y-65418019D01*
X183472894Y-65468590D01*
X183472893Y-65468590D01*
X183543408Y-65474998D01*
X183543426Y-65474999D01*
X184050000Y-65474999D01*
X184056581Y-65474999D01*
X184127102Y-65468591D01*
X184127107Y-65468590D01*
X184289396Y-65418018D01*
X184434877Y-65330072D01*
X184555072Y-65209877D01*
X184643019Y-65064395D01*
X184693590Y-64902106D01*
X184700000Y-64831572D01*
X184700000Y-64750000D01*
X184050000Y-64750000D01*
X184050000Y-65474999D01*
X183543426Y-65474999D01*
X183549999Y-65474998D01*
X183550000Y-65474998D01*
X183550000Y-64374000D01*
X183569685Y-64306961D01*
X183622489Y-64261206D01*
X183674000Y-64250000D01*
X184699999Y-64250000D01*
X184699999Y-64168417D01*
X184693591Y-64097897D01*
X184693590Y-64097892D01*
X184679100Y-64051391D01*
X184677948Y-63981531D01*
X184714748Y-63922138D01*
X184777817Y-63892070D01*
X184797485Y-63890500D01*
X188007171Y-63890500D01*
X188074210Y-63910185D01*
G37*
%TD.AperFunction*%
%TA.AperFunction,Conductor*%
G36*
X205649318Y-65950382D02*
G01*
X205649516Y-65950397D01*
X205650819Y-65950500D01*
X205869116Y-65950499D01*
X205936155Y-65970183D01*
X205981910Y-66022987D01*
X205991854Y-66092145D01*
X205962829Y-66155701D01*
X205956797Y-66162180D01*
X205929369Y-66189608D01*
X205868046Y-66223093D01*
X205855575Y-66225147D01*
X205820744Y-66229072D01*
X205650477Y-66288650D01*
X205497736Y-66384624D01*
X205468680Y-66413681D01*
X205407357Y-66447166D01*
X205380999Y-66450000D01*
X204774500Y-66450000D01*
X204707461Y-66430315D01*
X204661706Y-66377511D01*
X204650500Y-66326001D01*
X204650499Y-66144501D01*
X204670183Y-66077461D01*
X204722987Y-66031706D01*
X204774499Y-66020500D01*
X205097932Y-66020500D01*
X205097940Y-66020500D01*
X205134675Y-66017609D01*
X205134677Y-66017608D01*
X205134679Y-66017608D01*
X205176138Y-66005562D01*
X205291897Y-65971931D01*
X205291899Y-65971929D01*
X205291901Y-65971929D01*
X205299783Y-65967268D01*
X205362904Y-65950000D01*
X205639591Y-65950000D01*
X205649318Y-65950382D01*
G37*
%TD.AperFunction*%
%TA.AperFunction,Conductor*%
G36*
X193702539Y-61812185D02*
G01*
X193748294Y-61864989D01*
X193759500Y-61916500D01*
X193759500Y-63265001D01*
X193759501Y-63265018D01*
X193770000Y-63367796D01*
X193770001Y-63367799D01*
X193815404Y-63504815D01*
X193825186Y-63534334D01*
X193917288Y-63683656D01*
X194041344Y-63807712D01*
X194190666Y-63899814D01*
X194357203Y-63954999D01*
X194416601Y-63961067D01*
X194481293Y-63987463D01*
X194521444Y-64044643D01*
X194523774Y-64052331D01*
X194535983Y-64097897D01*
X194550423Y-64151785D01*
X194572211Y-64189522D01*
X194607128Y-64250000D01*
X194629479Y-64288715D01*
X194748349Y-64407585D01*
X194748355Y-64407590D01*
X195075139Y-64734374D01*
X195075149Y-64734385D01*
X195079479Y-64738715D01*
X195079480Y-64738716D01*
X195191284Y-64850520D01*
X195269693Y-64895789D01*
X195328215Y-64929577D01*
X195480943Y-64970500D01*
X195559903Y-64970500D01*
X195626942Y-64990185D01*
X195647584Y-65006819D01*
X196129298Y-65488533D01*
X196162783Y-65549856D01*
X196164837Y-65562330D01*
X196174630Y-65649249D01*
X196234210Y-65819521D01*
X196297049Y-65919528D01*
X196316049Y-65986764D01*
X196295681Y-66053600D01*
X196242414Y-66098814D01*
X196192055Y-66109500D01*
X192769007Y-66109500D01*
X192701968Y-66089815D01*
X192681326Y-66073181D01*
X192416246Y-65808101D01*
X192382761Y-65746778D01*
X192380709Y-65734322D01*
X192370914Y-65647381D01*
X192311335Y-65477114D01*
X192215362Y-65324374D01*
X192087808Y-65196820D01*
X191985345Y-65132438D01*
X191935069Y-65100847D01*
X191764800Y-65041267D01*
X191764795Y-65041266D01*
X191585550Y-65021071D01*
X191585543Y-65021071D01*
X191559290Y-65024029D01*
X191490469Y-65011975D01*
X191457725Y-64988489D01*
X191399943Y-64930706D01*
X191399920Y-64930685D01*
X189879403Y-63410168D01*
X189845918Y-63348845D01*
X189850902Y-63279153D01*
X189879403Y-63234806D01*
X190602391Y-62511819D01*
X190663714Y-62478334D01*
X190690072Y-62475500D01*
X192328331Y-62475500D01*
X192328347Y-62475501D01*
X192335943Y-62475501D01*
X192494054Y-62475501D01*
X192494057Y-62475501D01*
X192646785Y-62434577D01*
X192727084Y-62388216D01*
X192783716Y-62355520D01*
X192895520Y-62243716D01*
X192895520Y-62243714D01*
X192905724Y-62233511D01*
X192905727Y-62233506D01*
X193310416Y-61828819D01*
X193371739Y-61795334D01*
X193398097Y-61792500D01*
X193635500Y-61792500D01*
X193702539Y-61812185D01*
G37*
%TD.AperFunction*%
%TA.AperFunction,Conductor*%
G36*
X198946420Y-63314166D02*
G01*
X198960313Y-63330199D01*
X199048814Y-63452011D01*
X199079896Y-63494792D01*
X199230213Y-63645109D01*
X199402179Y-63770048D01*
X199402181Y-63770049D01*
X199402184Y-63770051D01*
X199575868Y-63858547D01*
X199626664Y-63906521D01*
X199643459Y-63974342D01*
X199620922Y-64040477D01*
X199566207Y-64083929D01*
X199539924Y-64090147D01*
X199540108Y-64091152D01*
X199533874Y-64092290D01*
X199382114Y-64136380D01*
X199382109Y-64136382D01*
X199246083Y-64216827D01*
X199246074Y-64216834D01*
X199134334Y-64328574D01*
X199134327Y-64328583D01*
X199053882Y-64464609D01*
X199053880Y-64464614D01*
X199009792Y-64616366D01*
X199009790Y-64616379D01*
X199007000Y-64651829D01*
X199007000Y-65028150D01*
X199007001Y-65028175D01*
X199010288Y-65069944D01*
X199008919Y-65070051D01*
X199002340Y-65132438D01*
X198975364Y-65172900D01*
X198412492Y-65735773D01*
X198300687Y-65847577D01*
X198300681Y-65847585D01*
X198256729Y-65923714D01*
X198256729Y-65923715D01*
X198221629Y-65984509D01*
X198221626Y-65984515D01*
X198212763Y-66017595D01*
X198176398Y-66077255D01*
X198113551Y-66107783D01*
X198092989Y-66109500D01*
X197727945Y-66109500D01*
X197660906Y-66089815D01*
X197615151Y-66037011D01*
X197605207Y-65967853D01*
X197622951Y-65919528D01*
X197685789Y-65819522D01*
X197745368Y-65649255D01*
X197745579Y-65647381D01*
X197765565Y-65470003D01*
X197765565Y-65469996D01*
X197745369Y-65290750D01*
X197745368Y-65290745D01*
X197739890Y-65275091D01*
X197685789Y-65120478D01*
X197685188Y-65119522D01*
X197603920Y-64990185D01*
X197589816Y-64967738D01*
X197462262Y-64840184D01*
X197322574Y-64752412D01*
X197309521Y-64744210D01*
X197139249Y-64684630D01*
X197052330Y-64674837D01*
X196987916Y-64647770D01*
X196978533Y-64639298D01*
X196347590Y-64008355D01*
X196347588Y-64008352D01*
X196250483Y-63911247D01*
X196216998Y-63849924D01*
X196221982Y-63780232D01*
X196250483Y-63735885D01*
X196302712Y-63683656D01*
X196394814Y-63534334D01*
X196394814Y-63534331D01*
X196398178Y-63528879D01*
X196450126Y-63482154D01*
X196519088Y-63470931D01*
X196583170Y-63498774D01*
X196591398Y-63506294D01*
X196730213Y-63645109D01*
X196902179Y-63770048D01*
X196902181Y-63770049D01*
X196902184Y-63770051D01*
X197091588Y-63866557D01*
X197293757Y-63932246D01*
X197503713Y-63965500D01*
X197503714Y-63965500D01*
X197716286Y-63965500D01*
X197716287Y-63965500D01*
X197926243Y-63932246D01*
X198128412Y-63866557D01*
X198317816Y-63770051D01*
X198364842Y-63735885D01*
X198489786Y-63645109D01*
X198489788Y-63645106D01*
X198489792Y-63645104D01*
X198640104Y-63494792D01*
X198759683Y-63330204D01*
X198815011Y-63287540D01*
X198884624Y-63281561D01*
X198946420Y-63314166D01*
G37*
%TD.AperFunction*%
%TA.AperFunction,Conductor*%
G36*
X206223040Y-64180185D02*
G01*
X206268795Y-64232989D01*
X206280001Y-64284500D01*
X206280001Y-64285672D01*
X206260316Y-64352711D01*
X206207512Y-64398466D01*
X206151616Y-64409483D01*
X206151616Y-64409500D01*
X206151531Y-64409500D01*
X206151141Y-64409577D01*
X206149183Y-64409500D01*
X206149181Y-64409500D01*
X206149178Y-64409500D01*
X205650830Y-64409500D01*
X205650808Y-64409501D01*
X205614794Y-64412335D01*
X205460611Y-64457129D01*
X205453446Y-64460230D01*
X205452508Y-64458063D01*
X205396194Y-64472339D01*
X205337702Y-64455158D01*
X205291897Y-64428069D01*
X205291895Y-64428068D01*
X205291893Y-64428067D01*
X205291892Y-64428066D01*
X205207595Y-64403576D01*
X205148709Y-64365970D01*
X205119503Y-64302497D01*
X205129249Y-64233310D01*
X205174853Y-64180376D01*
X205241836Y-64160501D01*
X205242190Y-64160500D01*
X206156001Y-64160500D01*
X206223040Y-64180185D01*
G37*
%TD.AperFunction*%
%TA.AperFunction,Conductor*%
G36*
X201446729Y-63313741D02*
G01*
X201460627Y-63329781D01*
X201580272Y-63494459D01*
X201580276Y-63494464D01*
X201730535Y-63644723D01*
X201730540Y-63644727D01*
X201902442Y-63769620D01*
X202070037Y-63855015D01*
X202120833Y-63902990D01*
X202137628Y-63970811D01*
X202115091Y-64036946D01*
X202060375Y-64080397D01*
X202013743Y-64089500D01*
X201844350Y-64089500D01*
X201844324Y-64089501D01*
X201808872Y-64092291D01*
X201657114Y-64136380D01*
X201657109Y-64136382D01*
X201521083Y-64216827D01*
X201521074Y-64216834D01*
X201409330Y-64328578D01*
X201405478Y-64333545D01*
X201348835Y-64374451D01*
X201279068Y-64378239D01*
X201218328Y-64343708D01*
X201209522Y-64333545D01*
X201205669Y-64328578D01*
X201093925Y-64216834D01*
X201093916Y-64216827D01*
X200957890Y-64136382D01*
X200957885Y-64136380D01*
X200806133Y-64092292D01*
X200806120Y-64092290D01*
X200770670Y-64089500D01*
X200707359Y-64089500D01*
X200640320Y-64069815D01*
X200594565Y-64017011D01*
X200584621Y-63947853D01*
X200613646Y-63884297D01*
X200651064Y-63855015D01*
X200661056Y-63849924D01*
X200817816Y-63770051D01*
X200864842Y-63735885D01*
X200989786Y-63645109D01*
X200989788Y-63645106D01*
X200989792Y-63645104D01*
X201140104Y-63494792D01*
X201259991Y-63329779D01*
X201315320Y-63287115D01*
X201384933Y-63281136D01*
X201446729Y-63313741D01*
G37*
%TD.AperFunction*%
%TA.AperFunction,Conductor*%
G36*
X189740916Y-61462185D02*
G01*
X189786671Y-61514989D01*
X189796615Y-61584147D01*
X189767590Y-61647703D01*
X189761558Y-61654181D01*
X189536173Y-61879565D01*
X189474850Y-61913050D01*
X189405158Y-61908066D01*
X189360811Y-61879565D01*
X189282756Y-61801510D01*
X189282754Y-61801508D01*
X189177747Y-61740882D01*
X189060626Y-61709500D01*
X188939374Y-61709500D01*
X188822253Y-61740882D01*
X188822250Y-61740883D01*
X188717249Y-61801506D01*
X188717243Y-61801510D01*
X188631510Y-61887243D01*
X188631506Y-61887249D01*
X188570883Y-61992250D01*
X188570882Y-61992253D01*
X188539500Y-62109374D01*
X188539500Y-62185500D01*
X188519815Y-62252539D01*
X188467011Y-62298294D01*
X188415500Y-62309500D01*
X186584500Y-62309500D01*
X186517461Y-62289815D01*
X186471706Y-62237011D01*
X186460500Y-62185500D01*
X186460500Y-62109376D01*
X186460500Y-62109374D01*
X186429118Y-61992253D01*
X186368492Y-61887246D01*
X186282754Y-61801508D01*
X186177747Y-61740882D01*
X186060626Y-61709500D01*
X185939374Y-61709500D01*
X185822253Y-61740882D01*
X185822250Y-61740883D01*
X185717249Y-61801506D01*
X185717243Y-61801510D01*
X185631510Y-61887243D01*
X185631503Y-61887252D01*
X185579131Y-61977962D01*
X185528564Y-62026177D01*
X185459956Y-62039399D01*
X185439658Y-62035737D01*
X185379057Y-62019499D01*
X185220943Y-62019499D01*
X185213347Y-62019499D01*
X185213331Y-62019500D01*
X182905000Y-62019500D01*
X182837961Y-61999815D01*
X182792206Y-61947011D01*
X182781000Y-61895500D01*
X182781000Y-61850000D01*
X181774000Y-61850000D01*
X181706961Y-61830315D01*
X181661206Y-61777511D01*
X181650000Y-61726000D01*
X181650000Y-61566500D01*
X181669685Y-61499461D01*
X181722489Y-61453706D01*
X181774000Y-61442500D01*
X189673877Y-61442500D01*
X189740916Y-61462185D01*
G37*
%TD.AperFunction*%
%TD*%
M02*
