M48
; DRILL file {KiCad 8.0.5} date 2025-02-24T18:35:28+0200
; FORMAT={-:-/ absolute / inch / decimal}
; #@! TF.CreationDate,2025-02-24T18:35:28+02:00
; #@! TF.GenerationSoftware,Kicad,Pcbnew,8.0.5
; #@! TF.FileFunction,Plated,1,2,PTH
FMAT,2
INCH
; #@! TA.AperFunction,Plated,PTH,ViaDrill
T1C0.0118
; #@! TA.AperFunction,Plated,PTH,ComponentDrill
T2C0.0374
; #@! TA.AperFunction,Plated,PTH,ComponentDrill
T3C0.0394
%
G90
G05
T1
X6.9123Y-2.8912
X6.9618Y-2.55
X6.9734Y-2.9695
X6.9878Y-2.8091
X6.9969Y-2.8465
X7.0043Y-2.5791
X7.0311Y-2.7756
X7.0393Y-2.6149
X7.0394Y-2.4547
X7.0475Y-2.8684
X7.0559Y-3.0177
X7.0807Y-2.876
X7.0953Y-3.0393
X7.115Y-2.4346
X7.1559Y-2.9406
X7.163Y-3.0055
X7.163Y-3.1161
X7.1713Y-2.4437
X7.1921Y-2.5134
X7.2167Y-2.6344
X7.231Y-2.7382
X7.2335Y-2.5831
X7.2346Y-2.948
X7.2348Y-2.7908
X7.2374Y-2.824
X7.2534Y-3.1746
X7.2606Y-2.5256
X7.2807Y-2.835
X7.2823Y-2.7512
X7.2835Y-2.5899
X7.2882Y-2.8016
X7.2921Y-3.0012
X7.3004Y-3.1228
X7.3065Y-3.0632
X7.3091Y-3.178
X7.3173Y-3.0181
X7.3205Y-2.9409
X7.3252Y-2.8906
X7.3701Y-2.6031
X7.3784Y-2.8457
X7.3866Y-3.0236
X7.3976Y-3.1559
X7.3993Y-2.5737
X7.4296Y-3.2027
X7.4378Y-2.5264
X7.4646Y-2.8409
X7.4709Y-3.0303
X7.4902Y-2.613
X7.4941Y-2.8815
X7.4941Y-2.9598
X7.5193Y-3.0323
X7.5427Y-2.5916
X7.5638Y-2.9213
X7.5646Y-3.0256
X7.5893Y-2.8985
X7.5957Y-3.0413
X7.6382Y-2.9185
X7.6472Y-2.7201
X7.6492Y-2.7925
X7.6707Y-2.8793
X7.6862Y-2.5776
X7.6981Y-2.8902
X7.714Y-2.7357
X7.715Y-3.1452
X7.7209Y-2.8693
X7.7441Y-3.0335
X7.7461Y-2.5335
X7.7543Y-2.5776
X7.7622Y-2.7507
X7.7713Y-3.1396
X7.8015Y-2.9863
X7.8043Y-2.5697
X7.8066Y-3.1251
X7.8114Y-3.0858
X7.8209Y-2.9505
X7.8209Y-3.0114
X7.8394Y-3.1311
X7.8421Y-2.8619
X7.8553Y-2.8898
X7.863Y-2.6791
X7.865Y-2.7898
X7.8681Y-3.1841
X7.8843Y-2.8213
X7.8889Y-3.0063
X7.8925Y-3.1303
X7.8972Y-2.702
X7.9175Y-2.8564
X7.9396Y-2.5263
X7.9508Y-3.1311
X8.0122Y-2.915
X8.0284Y-2.4998
X8.0378Y-2.5315
X8.0378Y-2.5315
X8.0567Y-3.1177
X8.0953Y-2.4669
X8.1028Y-3.1291
X8.1033Y-2.99
X8.1102Y-2.6384
X8.1244Y-3.1583
X8.1276Y-2.952
X8.1441Y-2.9628
X8.151Y-2.5543
X8.1833Y-2.8492
X8.1858Y-2.8839
X8.2075Y-2.6795
X8.2075Y-3.0021
X8.2075Y-3.0437
X8.2189Y-2.5031
X8.2213Y-2.6053
X8.2213Y-3.0698
T2
X7.6815Y-2.4602
X7.7799Y-2.4602
X7.8783Y-2.4602
X7.9768Y-2.4602
T3
X6.9657Y-2.6492
X6.9657Y-2.7476
X7.9173Y-3.063
X8.0157Y-3.063
M30
